<svg width="23" height="23" viewBox="0 0 23 23" fill="none" xmlns="http://www.w3.org/2000/svg">
<path d="M16.3714 4.39523H19.9642C20.2819 4.39523 20.5865 4.52141 20.8111 4.746C21.0357 4.9706 21.1618 5.27522 21.1618 5.59285V18.7666C21.1618 19.4019 20.9095 20.0111 20.4603 20.4603C20.0111 20.9095 19.4019 21.1618 18.7666 21.1618M18.7666 21.1618C18.1314 21.1618 17.5221 20.9095 17.0729 20.4603C16.6237 20.0111 16.3714 19.4019 16.3714 18.7666V3.19762C16.3714 2.87999 16.2452 2.57537 16.0206 2.35077C15.796 2.12618 15.4914 2 15.1738 2H3.19762C2.87999 2 2.57537 2.12618 2.35077 2.35077C2.12618 2.57537 2 2.87999 2 3.19762V17.569C2 18.5219 2.37853 19.4357 3.05232 20.1095C3.72611 20.7833 4.63996 21.1618 5.59285 21.1618H18.7666ZM6.79046 6.79046H11.5809M6.79046 11.5809H11.5809M6.79046 16.3714H11.5809" stroke="#F5F7F8" stroke-width="2.39523" stroke-linecap="round" stroke-linejoin="round"/>
</svg>
