<svg width="305" height="92" viewBox="0 0 305 92" fill="none" xmlns="http://www.w3.org/2000/svg">
<path fill-rule="evenodd" clip-rule="evenodd" d="M277.564 3.49609H282.944V8.87528H277.564V3.49609ZM278.91 8.87598H281.6V37.9236H278.91V8.87598ZM7.52693 3.49616H-0.00393388V8.87535H7.52693V3.49616ZM5.64424 8.87586H-0.00391264V67.509H5.64424V64.0127H11.8286V62.13H5.64424V52.1773H9.40798V47.336H5.64424V8.87586ZM128.291 3.49714H133.401V8.87633H128.291V3.49714ZM91.9816 3.49707H86.0645V8.87625H91.9816V3.49707ZM45.1835 3.49714H50.0248V8.87633H45.1835V3.49714ZM290.74 58.6331H292.085V84.1843H290.74V78.8058H281.602V84.1846H299.353V3.49714H305.002V84.185H305.001V90.3707H278.912V84.1855V84.1846V44.6485H281.602V46.7999H283.482V52.1791H281.602V58.6339H290.74V58.6331ZM290.74 59.9787H281.602V65.0882H290.74V59.9787ZM290.74 66.433H281.602V71.2755H290.74V66.433ZM290.74 72.6203H281.602V77.461H290.74V72.6203ZM235.066 3.49714H241.79V8.87633H235.066V3.49714ZM259.272 3.49714H256.851V8.87633H259.272V3.49714ZM271.106 3.49714H265.726V8.87633H271.106V3.49714ZM267.34 33.8896H256.043V35.2344H270.836V33.8896H269.223V8.87702H267.34V33.8896ZM231.031 33.8896H236.678V8.87702H238.56V33.8896H248.783V35.2344H231.031V33.8896ZM217.045 62.1022L178.685 62.2667L178.692 63.8804L193.648 63.8163V87.1426H192.572V90.3702H196.338V87.1426H194.993V63.8105L217.052 63.7159L217.045 62.1022ZM112.961 3.49616H107.582V8.87535H112.961V3.49616ZM108.928 44.1094H109.734V8.87593H111.079V44.1094H112.962V54.0609H108.928V44.1094ZM92.2519 46.7999H108.927V49.7584H92.2519V46.7999ZM71.001 3.49616H65.0839V8.87535H71.001V3.49616ZM68.3115 8.87605H66.9667V33.6203H68.3115V8.87605ZM34.1523 3.49616H38.4556V8.87535H34.1523V3.49616ZM34.9589 8.87605H36.3037V26.8963H34.9589V8.87605ZM170.789 3.49714H176.975V8.87633H170.789V3.49714ZM192.844 49.7581H197.414V49.7584H215.703V49.7577H217.048V30.3926H215.703V46.7999H197.414V42.4962H195.532V8.87698H194.188V42.4962H192.842V46.7999H168.906V49.7584H192.844V49.7581ZM174.286 8.87702H172.941V15.87H174.286V8.87702ZM172.941 22.8624H174.286V46.7998H172.941V22.8624ZM219.739 3.49714H213.553V8.87633H219.739V3.49714ZM198.223 3.49722H192.037V8.8764H198.223V3.49722ZM217.049 33.8896H224.042V35.2344H217.049V33.8896ZM217.048 8.87702H215.703V23.6698H217.048V8.87702ZM155.727 3.49818H148.465V8.87737H151.693V34.6971H153.038V8.87737H155.727V3.49818ZM153.038 41.6885H151.693V44.1085V44.1092V54.06H154.383V49.7565H159.76V46.7979H154.383V44.1085H153.038V41.6885ZM299.352 3.49714H297.738V8.87633H299.352V3.49714ZM294.242 48.9512H297.47V50.296H294.242V48.9512ZM299.353 46.8009H297.471V52.18H299.353V46.8009ZM235.068 43.8409H239.103V46.7999H246.634V48.1447H239.103V53.5234H235.068V48.1447V46.7999V43.8409ZM235.068 90.3711V87.1436H238.834V90.3711H235.068ZM278.91 46.7999H275.414H270.842V50.8343H275.414V54.5997H278.91V46.7999ZM270.842 46.7999H253.359V48.1447H258.201V69.6614H260.084V48.1447H270.842V46.7999ZM283.482 48.9522H288.055V50.297H283.482V48.9522ZM238.297 87.1434V53.5235H236.414V62.1298H224.043V63.7435H236.414V87.1434H238.297ZM258.201 75.0411H260.084V87.1443H258.201V75.0411ZM151.152 75.0411H152.497V87.1439H153.842V90.3714H150.076V87.1439H151.152V76.1169H137.435V75.0411H151.152ZM113.496 87.1439H109.732V90.3714H113.498V90.3711H139.854V87.1436H137.435V75.0411H136.09V87.1436H113.496V87.1439ZM66.4296 42.2268H68.3123V47.337H68.3115V50.2946H53.2498V47.3361H66.4296V42.2268ZM85.2587 46.799H68.3143V49.7575H85.2587V46.799ZM63.4705 50.2951H68.3118V54.3295H63.4705V50.2951ZM34.959 32.2762H36.3037V36.3106H34.959V36.3099H32.8075V40.0751H31.4627V36.3099H27.4297V34.6962H34.959V32.2762ZM21.2422 47.3368H23.9317V34.6966H27.4281V47.3368H29.042V52.1781H27.4281V62.1307H27.4287V64.0134H27.4281V85.261L27.428 85.261V90.6402H-0.00582751V87.1439H-0.00585938V81.7648H6.18021V85.261L23.9317 85.261V64.0134H19.6289V62.1307H23.9317V52.1781H21.2422V47.3368ZM31.4629 47.3368H29.0429V50.2953H46.2563V47.3368H32.8077V43.5731H31.4629V47.3368ZM66.9687 61.0546H68.5825V62.9364H68.85H88.7544V64.2812H68.85V87.1434H69.9256V90.3709H66.1601V87.1434H67.2363V64.2812H60.5136V62.9364H66.9687V61.0546ZM56.7462 62.9364H27.4297V64.2812H56.7462V62.9364ZM22.8593 3.49609H27.4316V8.87528H22.8593V3.49609ZM23.9355 8.87579H27.432V29.5857H23.9355V8.87579Z" fill="#379777"/>
<line x1="259.277" y1="4.4475" x2="265.732" y2="4.4475" stroke="#F5F7F8" stroke-width="0.251486"/>
<line x1="259.277" y1="5.79125" x2="265.732" y2="5.79125" stroke="#F5F7F8" stroke-width="0.251486"/>
<line x1="259.277" y1="7.13695" x2="265.732" y2="7.13695" stroke="#F5F7F8" stroke-width="0.251486"/>
<line x1="259.277" y1="8.4807" x2="265.732" y2="8.4807" stroke="#F5F7F8" stroke-width="0.251486"/>
<path fill-rule="evenodd" clip-rule="evenodd" d="M7.53078 4.57375H22.8615V4.32227H7.53078V4.57375ZM7.53078 5.9175H22.8615V5.66602H7.53078V5.9175ZM22.8613 7.26305H7.53062V7.01156H22.8613V7.26305ZM7.53078 8.60695H22.8615V8.35547H7.53078V8.60695ZM0.269064 67.5084L0.269064 81.7632H0.0175781V67.5084H0.269064ZM2.062 81.7632L2.062 67.5084H1.81051L1.81051 81.7632H2.062ZM3.85493 67.5084L3.85493 81.7632H3.60344L3.60344 67.5084H3.85493ZM5.64786 81.7632L5.64786 67.5084H5.39637L5.39637 81.7632H5.64786ZM45.1845 4.57375H38.4605V4.32227H45.1845V4.57375ZM38.4605 5.9175H45.1845V5.66602H38.4605V5.9175ZM45.1845 7.26315H38.4605V7.01166H45.1845V7.26315ZM38.4605 8.60695H45.1845V8.35547H38.4605V8.60695ZM65.0847 4.57375H50.023V4.32227H65.0847V4.57375ZM50.023 5.9175H65.0847V5.66602H50.023V5.9175ZM65.0846 7.26305H50.0229V7.01156H65.0846V7.26305ZM50.023 8.60695H65.0847V8.35547H50.023V8.60695ZM86.0652 4.57375H71.0034V4.32227H86.0652V4.57375ZM71.0034 5.9175H86.0652V5.66602H71.0034V5.9175ZM86.0652 7.26315H71.0034V7.01166H86.0652V7.26315ZM71.0034 8.60695H86.0652V8.35547H71.0034V8.60695ZM107.582 4.57375H91.982V4.32227H107.582V4.57375ZM91.982 5.9175H107.582V5.66602H91.982V5.9175ZM107.582 7.26315H91.982V7.01166H107.582V7.26315ZM91.982 8.60695H107.582V8.35547H91.982V8.60695ZM128.291 4.57375H112.96V4.32227H128.291V4.57375ZM112.96 5.9175H128.291V5.66602H112.96V5.9175ZM128.291 7.26315H112.96V7.01166H128.291V7.26315ZM112.96 8.60695H128.291V8.35547H112.96V8.60695ZM148.462 4.57375H133.4V4.32227H148.462V4.57375ZM133.4 5.9175H148.462V5.66602H133.4V5.9175ZM148.462 7.26315H133.4V7.01166H148.462V7.26315ZM133.4 8.60695H148.462V8.35547H133.4V8.60695ZM170.79 4.57375H155.728V4.32227H170.79V4.57375ZM155.728 5.9175H170.79V5.66602H155.728V5.9175ZM170.79 7.26305H155.728V7.01156H170.79V7.26305ZM155.728 8.60695H170.79V8.35547H155.728V8.60695ZM192.034 4.57375H176.972V4.32227H192.034V4.57375ZM176.972 5.91848H192.034V5.66699H176.972V5.91848ZM192.034 7.26315H176.972V7.01166H192.034V7.26315ZM176.972 8.60793H192.034V8.35645H176.972V8.60793ZM213.549 4.57375H198.218V4.32227H213.549V4.57375ZM198.218 5.9175H213.549V5.66602H198.218V5.9175ZM213.549 7.26305H198.218V7.01156H213.549V7.26305ZM198.218 8.60695H213.549V8.35547H198.218V8.60695ZM235.068 4.57375H219.738V4.32227H235.068V4.57375ZM219.738 5.9175H235.068V5.66602H219.738V5.9175ZM235.068 7.26315H219.738V7.01166H235.068V7.26315ZM219.738 8.60695H235.068V8.35547H219.738V8.60695ZM256.856 4.57375H241.794V4.32227H256.856V4.57375ZM241.794 5.9175H256.856V5.66602H241.794V5.9175ZM256.856 7.26315H241.794V7.01166H256.856V7.26315ZM241.794 8.60695H256.856V8.35547H241.794V8.60695ZM297.736 4.57375H282.943V4.32227H297.736V4.57375ZM282.943 5.9175H297.736V5.66602H282.943V5.9175ZM297.736 7.26305H282.943V7.01156H297.736V7.26305ZM282.943 8.60695H297.736V8.35547H282.943V8.60695ZM278.91 87.4126H238.835V87.1611H278.91V87.4126ZM238.835 88.398H278.91V88.1465H238.835V88.398ZM278.91 89.3852H238.835V89.1338H278.91V89.3852ZM238.835 90.3706H278.91V90.1191H238.835V90.3706ZM235.07 87.4136H196.339V87.1621H235.07V87.4136ZM196.339 88.3989H235.07V88.1475H196.339V88.3989ZM235.07 89.3862H196.339V89.1347H235.07V89.3862ZM196.339 90.3716H235.07V90.1201H196.339V90.3716ZM192.575 87.4116H153.845V87.1602H192.575V87.4116ZM153.845 88.397H192.575V88.1455H153.845V88.397ZM192.575 89.3843H153.845V89.1328H192.575V89.3843ZM153.845 90.3697H192.575V90.1182H153.845V90.3697ZM109.735 87.4136H69.9292V87.1621H109.735V87.4136ZM69.9292 88.3989H109.735V88.1475H69.9292V88.3989ZM109.735 89.3862H69.9292V89.1347H109.735V89.3862ZM69.9292 90.3716H109.735V90.1201H69.9292V90.3716ZM66.1652 87.4116H27.4351V87.1602H66.1652V87.4116ZM27.4351 88.397H66.1652V88.1455H27.4351V88.397ZM66.1652 89.3843H27.4351V89.1328H66.1652V89.3843ZM27.4351 90.3697H66.1652V90.1182H27.4351V90.3697Z" fill="#F5F7F8"/>
<rect x="224.293" y="34.1978" width="6.48997" height="0.853033" stroke="#F5F7F8" stroke-width="0.502971"/>
<line x1="227.377" y1="33.083" x2="227.377" y2="36.0416" stroke="#F5F7F8" stroke-width="0.754457"/>
<rect x="249.039" y="34.1978" width="6.75893" height="0.853033" stroke="#F5F7F8" stroke-width="0.502971"/>
<line x1="252.237" y1="33.083" x2="252.237" y2="36.0416" stroke="#F5F7F8" stroke-width="0.754457"/>
<rect x="271.093" y="34.1978" width="7.56581" height="0.853033" stroke="#F5F7F8" stroke-width="0.502971"/>
<line x1="274.631" y1="33.083" x2="274.631" y2="36.0416" stroke="#F5F7F8" stroke-width="0.754457"/>
<rect x="271.365" y="3.70461" width="5.95206" height="4.92104" stroke="#F5F7F8" stroke-width="0.502971"/>
<line x1="274.219" y1="0.000976582" x2="274.219" y2="11.8352" stroke="#F5F7F8" stroke-width="0.754457"/>
<rect x="288.306" y="49.2593" width="5.6831" height="0.853033" stroke="#F5F7F8" stroke-width="0.502971"/>
<line x1="291.049" y1="48.1445" x2="291.049" y2="51.1031" stroke="#F5F7F8" stroke-width="0.754457"/>
<rect x="246.886" y="47.107" width="6.22102" height="0.853033" stroke="#F5F7F8" stroke-width="0.502971"/>
<line x1="249.856" y1="45.9922" x2="249.856" y2="48.9507" stroke="#F5F7F8" stroke-width="0.754457"/>
<rect x="217.302" y="62.437" width="6.48997" height="0.853033" stroke="#F5F7F8" stroke-width="0.502971"/>
<line x1="220.387" y1="61.3223" x2="220.387" y2="64.2808" stroke="#F5F7F8" stroke-width="0.754457"/>
<rect x="281.319" y="38.1753" width="6.22102" height="2.08576" transform="rotate(90 281.319 38.1753)" stroke="#F5F7F8" stroke-width="0.502971"/>
<line x1="283.215" y1="41.1458" x2="277.567" y2="41.1458" stroke="#F5F7F8" stroke-width="0.754457"/>
<rect x="259.844" y="69.9136" width="4.87622" height="1.59267" transform="rotate(90 259.844 69.9136)" stroke="#F5F7F8" stroke-width="0.502971"/>
<line x1="261.43" y1="72.3147" x2="256.857" y2="72.3147" stroke="#F5F7F8" stroke-width="0.754457"/>
<rect x="216.858" y="23.9204" width="6.22102" height="1.09958" transform="rotate(90 216.858 23.9204)" stroke="#F5F7F8" stroke-width="0.502971"/>
<line x1="218.127" y1="26.8909" x2="214.63" y2="26.8909" stroke="#F5F7F8" stroke-width="0.754457"/>
<rect x="173.977" y="16.1206" width="6.48997" height="0.853033" transform="rotate(90 173.977 16.1206)" stroke="#F5F7F8" stroke-width="0.502971"/>
<line x1="175.092" y1="19.2044" x2="172.133" y2="19.2044" stroke="#F5F7F8" stroke-width="0.754457"/>
<rect x="152.729" y="34.9478" width="6.48997" height="0.853033" transform="rotate(90 152.729 34.9478)" stroke="#F5F7F8" stroke-width="0.502971"/>
<line x1="153.844" y1="38.0325" x2="150.885" y2="38.0325" stroke="#F5F7F8" stroke-width="0.754457"/>
<rect x="68.1235" y="33.8716" width="8.10373" height="1.09958" transform="rotate(90 68.1235 33.8716)" stroke="#F5F7F8" stroke-width="0.502971"/>
<line x1="69.3926" y1="37.6389" x2="65.8961" y2="37.6389" stroke="#F5F7F8" stroke-width="0.754457"/>
<rect x="68.393" y="54.5825" width="6.22102" height="1.09958" transform="rotate(90 68.393 54.5825)" stroke="#F5F7F8" stroke-width="0.502971"/>
<line x1="69.6621" y1="57.553" x2="66.1656" y2="57.553" stroke="#F5F7F8" stroke-width="0.754457"/>
<rect x="36.0044" y="27.148" width="4.87622" height="0.853033" transform="rotate(90 36.0044 27.148)" stroke="#F5F7F8" stroke-width="0.502971"/>
<line x1="37.1172" y1="29.5501" x2="34.1586" y2="29.5501" stroke="#F5F7F8" stroke-width="0.754457"/>
<rect x="32.563" y="40.3267" width="2.9935" height="0.841826" transform="rotate(90 32.563 40.3267)" stroke="#F5F7F8" stroke-width="0.502971"/>
<rect x="27.0571" y="29.8374" width="4.60726" height="3.07195" transform="rotate(90 27.0571 29.8374)" stroke="#F5F7F8" stroke-width="0.502971"/>
<line x1="29.5859" y1="32.1253" x2="21.7861" y2="32.1253" stroke="#F5F7F8" stroke-width="0.754457"/>
<rect x="12.0855" y="62.2915" width="7.29685" height="1.4694" stroke="#F5F7F8" stroke-width="0.502971"/>
<line x1="15.512" y1="60.7842" x2="15.512" y2="65.0875" stroke="#F5F7F8" stroke-width="0.754457"/>
<rect x="160.011" y="47.0513" width="8.64165" height="2.45558" stroke="#F5F7F8" stroke-width="0.502971"/>
<line x1="164.004" y1="44.917" x2="164.004" y2="51.372" stroke="#F5F7F8" stroke-width="0.754457"/>
<rect x="140.115" y="87.4732" width="9.71749" height="2.57886" stroke="#F5F7F8" stroke-width="0.502971"/>
<line x1="144.565" y1="85.2598" x2="144.565" y2="91.9837" stroke="#F5F7F8" stroke-width="0.754457"/>
<rect x="85.5132" y="47.0503" width="6.48997" height="2.45558" stroke="#F5F7F8" stroke-width="0.502971"/>
<line x1="88.5979" y1="44.917" x2="88.5979" y2="51.372" stroke="#F5F7F8" stroke-width="0.754457"/>
<rect x="46.5171" y="47.5864" width="6.48997" height="2.45558" stroke="#F5F7F8" stroke-width="0.502971"/>
<line x1="49.6018" y1="45.4531" x2="49.6018" y2="51.9082" stroke="#F5F7F8" stroke-width="0.754457"/>
<rect x="57.0015" y="63.2446" width="3.26246" height="0.853033" stroke="#F5F7F8" stroke-width="0.502971"/>
<line x1="58.7229" y1="62.1299" x2="58.7229" y2="65.0884" stroke="#F5F7F8" stroke-width="0.754457"/>
<rect x="27.687" y="3.74856" width="6.22102" height="4.92104" stroke="#F5F7F8" stroke-width="0.502971"/>
<line x1="30.7718" y1="2.69043" x2="30.7718" y2="9.68338" stroke="#F5F7F8" stroke-width="0.754457"/>
<rect x="9.66555" y="47.5884" width="11.3312" height="4.3383" stroke="#F5F7F8" stroke-width="0.502971"/>
<rect x="5.77613" y="9.53883" width="18.0378" height="9.70001" stroke="#F5F7F8" stroke-width="0.251486"/>
<line x1="14.3836" y1="19.3643" x2="14.3836" y2="40.881" stroke="#F5F7F8" stroke-width="0.251486"/>
<line x1="15.4597" y1="19.3643" x2="15.4597" y2="40.881" stroke="#F5F7F8" stroke-width="0.251486"/>
<line x1="5.65039" y1="40.7551" x2="14.2571" y2="40.7551" stroke="#F5F7F8" stroke-width="0.251486"/>
<line x1="14.5254" y1="40.7551" x2="15.3323" y2="40.7551" stroke="#F5F7F8" stroke-width="0.251486"/>
<line x1="5.65039" y1="38.6037" x2="14.2571" y2="38.6037" stroke="#F5F7F8" stroke-width="0.251486"/>
<line x1="5.65039" y1="36.4524" x2="14.2571" y2="36.4524" stroke="#F5F7F8" stroke-width="0.251486"/>
<line x1="5.65039" y1="34.301" x2="14.2571" y2="34.301" stroke="#F5F7F8" stroke-width="0.251486"/>
<line x1="5.65039" y1="32.1487" x2="14.2571" y2="32.1487" stroke="#F5F7F8" stroke-width="0.251486"/>
<line x1="5.65039" y1="29.9973" x2="14.2571" y2="29.9973" stroke="#F5F7F8" stroke-width="0.251486"/>
<line x1="5.65039" y1="27.845" x2="14.2571" y2="27.845" stroke="#F5F7F8" stroke-width="0.251486"/>
<line x1="5.65039" y1="25.6936" x2="14.2571" y2="25.6936" stroke="#F5F7F8" stroke-width="0.251486"/>
<line x1="5.65039" y1="23.5422" x2="14.2571" y2="23.5422" stroke="#F5F7F8" stroke-width="0.251486"/>
<line x1="5.65039" y1="21.3899" x2="14.2571" y2="21.3899" stroke="#F5F7F8" stroke-width="0.251486"/>
<line x1="15.6016" y1="21.3899" x2="23.9393" y2="21.3899" stroke="#F5F7F8" stroke-width="0.251486"/>
<line x1="15.6016" y1="23.5422" x2="23.9393" y2="23.5422" stroke="#F5F7F8" stroke-width="0.251486"/>
<line x1="15.6016" y1="25.6936" x2="23.9393" y2="25.6936" stroke="#F5F7F8" stroke-width="0.251486"/>
<line x1="15.6016" y1="27.845" x2="23.9393" y2="27.845" stroke="#F5F7F8" stroke-width="0.251486"/>
<line x1="15.6016" y1="29.9973" x2="23.9393" y2="29.9973" stroke="#F5F7F8" stroke-width="0.251486"/>
<rect x="-0.125743" y="0.125743" width="17.4998" height="9.70001" transform="matrix(-1 0 0 1 299.102 8.87598)" stroke="#F5F7F8" stroke-width="0.251486"/>
<line y1="-0.125743" x2="21.5168" y2="-0.125743" transform="matrix(-4.24258e-08 1 1 4.5036e-08 291 18.8271)" stroke="#F5F7F8" stroke-width="0.251486"/>
<line y1="-0.125743" x2="21.5168" y2="-0.125743" transform="matrix(-4.24258e-08 1 1 4.5036e-08 289.955 18.8271)" stroke="#F5F7F8" stroke-width="0.251486"/>
<line y1="-0.125743" x2="8.35357" y2="-0.125743" transform="matrix(-1 0 0 1 299.354 40.3438)" stroke="#F5F7F8" stroke-width="0.251486"/>
<line y1="-0.125743" x2="0.783147" y2="-0.125743" transform="matrix(-1 1.20096e-07 1.13136e-07 1 290.738 40.3438)" stroke="#F5F7F8" stroke-width="0.251486"/>
<line y1="-0.125743" x2="8.35357" y2="-0.125743" transform="matrix(-1 0 0 1 299.354 38.1924)" stroke="#F5F7F8" stroke-width="0.251486"/>
<line y1="-0.125743" x2="8.35357" y2="-0.125743" transform="matrix(-1 0 0 1 299.354 36.041)" stroke="#F5F7F8" stroke-width="0.251486"/>
<line y1="-0.125743" x2="8.35357" y2="-0.125743" transform="matrix(-1 0 0 1 299.354 33.8896)" stroke="#F5F7F8" stroke-width="0.251486"/>
<line y1="-0.125743" x2="8.35357" y2="-0.125743" transform="matrix(-1 0 0 1 299.354 31.7373)" stroke="#F5F7F8" stroke-width="0.251486"/>
<line y1="-0.125743" x2="8.35357" y2="-0.125743" transform="matrix(-1 0 0 1 299.354 29.5859)" stroke="#F5F7F8" stroke-width="0.251486"/>
<line y1="-0.125743" x2="8.35357" y2="-0.125743" transform="matrix(-1 0 0 1 299.354 27.4336)" stroke="#F5F7F8" stroke-width="0.251486"/>
<line y1="-0.125743" x2="8.35357" y2="-0.125743" transform="matrix(-1 0 0 1 299.354 25.2832)" stroke="#F5F7F8" stroke-width="0.251486"/>
<line y1="-0.125743" x2="8.35357" y2="-0.125743" transform="matrix(-1 0 0 1 299.354 23.1309)" stroke="#F5F7F8" stroke-width="0.251486"/>
<line y1="-0.125743" x2="8.35357" y2="-0.125743" transform="matrix(-1 0 0 1 299.354 20.9785)" stroke="#F5F7F8" stroke-width="0.251486"/>
<line y1="-0.125743" x2="8.09251" y2="-0.125743" transform="matrix(-1 0 0 1 289.695 20.9785)" stroke="#F5F7F8" stroke-width="0.251486"/>
<line y1="-0.125743" x2="8.09251" y2="-0.125743" transform="matrix(-1 0 0 1 289.695 23.1309)" stroke="#F5F7F8" stroke-width="0.251486"/>
<line y1="-0.125743" x2="8.09251" y2="-0.125743" transform="matrix(-1 0 0 1 289.695 25.2832)" stroke="#F5F7F8" stroke-width="0.251486"/>
<line y1="-0.125743" x2="8.09251" y2="-0.125743" transform="matrix(-1 0 0 1 289.695 27.4336)" stroke="#F5F7F8" stroke-width="0.251486"/>
<line y1="-0.125743" x2="8.09251" y2="-0.125743" transform="matrix(-1 0 0 1 289.695 29.5859)" stroke="#F5F7F8" stroke-width="0.251486"/>
<rect x="27.5613" y="36.4353" width="3.78291" height="10.7759" stroke="#F5F7F8" stroke-width="0.251486"/>
<line x1="27.5542" y1="36.5366" x2="31.3197" y2="47.295" stroke="#F5F7F8" stroke-width="0.251486"/>
<line x1="31.3199" y1="36.3511" x2="27.5544" y2="47.1095" stroke="#F5F7F8" stroke-width="0.251486"/>
<path d="M169.357 61.4213L170.382 63.6072C170.407 63.6686 170.467 63.7075 170.535 63.7058C170.568 63.705 170.602 63.6947 170.631 63.6761C170.66 63.6574 170.684 63.6313 170.699 63.6006L173.01 57.7679L167.177 60.0785C167.115 60.1101 167.073 60.1747 167.072 60.2431C167.07 60.3112 167.109 60.3713 167.171 60.3964L169.357 61.4213Z" stroke="#F4CE14" stroke-linecap="round" stroke-linejoin="round"/>
<path d="M176.5 56C176.224 56 176 56.2239 176 56.5C176 56.7761 176.224 57 176.5 57V56ZM226 56.5V57H226.5V56.5H226ZM226 40V39.5H225.5V40H226ZM285 40V40.5H285.5V40H285ZM285 14V13.5H284.5V14H285ZM295 14H295.5V13.5H295V14ZM294.646 39.3536C294.842 39.5488 295.158 39.5488 295.354 39.3536L298.536 36.1716C298.731 35.9763 298.731 35.6597 298.536 35.4645C298.34 35.2692 298.024 35.2692 297.828 35.4645L295 38.2929L292.172 35.4645C291.976 35.2692 291.66 35.2692 291.464 35.4645C291.269 35.6597 291.269 35.9763 291.464 36.1716L294.646 39.3536ZM176.5 57H226V56H176.5V57ZM226.5 56.5V40H225.5V56.5H226.5ZM226 40.5H285V39.5H226V40.5ZM285.5 40V14H284.5V40H285.5ZM285 14.5H295V13.5H285V14.5ZM294.5 14V39H295.5V14H294.5Z" fill="#F4CE14"/>
</svg>
