<svg width="27" height="26" viewBox="0 0 27 26" fill="none" xmlns="http://www.w3.org/2000/svg">
<path d="M25.8836 9.44843L25.8835 9.44814C25.7477 9.02904 25.4906 8.65964 25.1447 8.38672C24.7989 8.11379 24.3799 7.9496 23.9407 7.91493L23.9406 7.91492L17.5869 7.40182L17.5526 7.39905L17.5395 7.36732L15.0874 1.438L15.0873 1.43789C14.9192 1.02912 14.6335 0.679532 14.2663 0.43351C13.8991 0.187489 13.4671 0.0561382 13.0251 0.0561382C12.5831 0.0561382 12.1511 0.187489 11.7839 0.43351C11.4167 0.679532 11.1309 1.02912 10.9629 1.43789L10.9628 1.43798L8.51295 7.36842L8.49982 7.40018L8.46557 7.40294L2.11195 7.91491C2.11193 7.91491 2.11191 7.91492 2.11189 7.91492C1.67184 7.95122 1.25233 8.11677 0.906086 8.39077C0.559822 8.66478 0.302272 9.03503 0.1658 9.45498C0.0293289 9.87492 0.0200249 10.3258 0.139058 10.7511C0.258091 11.1763 0.500149 11.5568 0.834816 11.8449L0.834857 11.8449L5.68295 16.0261L5.70878 16.0484L5.70091 16.0816L4.21887 22.3354L4.21877 22.3358C4.11332 22.7659 4.13827 23.2176 4.29042 23.6335C4.44257 24.0494 4.71505 24.4106 5.07315 24.6711C5.43126 24.9316 5.85879 25.0796 6.3013 25.0963C6.74382 25.113 7.1813 24.9977 7.55804 24.7649L7.55812 24.7649L12.9957 21.4179L13.0251 21.3998L13.0545 21.4179L18.492 24.7649L25.8836 9.44843ZM25.8836 9.44843C26.0226 9.86961 26.0333 10.3226 25.9143 10.7499C25.7954 11.1772 25.5521 11.5594 25.2155 11.8482L25.2153 11.8483L20.3672 16.0295L20.3414 16.0517L20.3493 16.0849L21.8313 22.3387L21.8314 22.3389M25.8836 9.44843L21.8314 22.3389M25.9369 9.43083C25.7977 9.00116 25.5341 8.62246 25.1795 8.34265C24.825 8.06284 24.3954 7.89451 23.9451 7.85896L25.9369 9.43083ZM25.9369 9.43083C26.0794 9.86258 26.0903 10.3269 25.9684 10.7649C25.8465 11.2029 25.5971 11.5948 25.252 11.8908L25.9369 9.43083ZM21.8314 22.3389C21.9348 22.7686 21.9084 23.2193 21.7556 23.6339C21.6028 24.0486 21.3303 24.4086 20.9728 24.6684C20.6152 24.9281 20.1886 25.0759 19.747 25.0931C19.3055 25.1103 18.8687 24.9961 18.4921 24.7649L21.8314 22.3389ZM18.0614 14.6044L18.0248 14.5619L18.0614 14.6044L22.8074 10.5108L22.909 10.4231L22.7752 10.4123L16.5551 9.91044C16.3179 9.89138 16.0905 9.80713 15.8982 9.667C15.7058 9.52687 15.556 9.33631 15.4651 9.11636L13.077 3.33413L13.0251 3.2085L12.9732 3.33413L10.5851 9.11636C10.4942 9.33631 10.3444 9.52687 10.152 9.667C9.95967 9.80713 9.73233 9.89138 9.49512 9.91044L9.4951 9.91044L3.27499 10.4123L3.1413 10.4231L3.24281 10.5108L7.98874 14.6088L7.98877 14.6089C8.16792 14.7633 8.30121 14.964 8.37407 15.1891C8.44693 15.4141 8.45658 15.6548 8.40195 15.885L8.40194 15.885L6.9547 21.9929L6.92351 22.1245L7.03873 22.0536L12.3483 18.7886L12.3483 18.7886C12.5518 18.6633 12.7861 18.597 13.0251 18.597C13.2641 18.597 13.4984 18.6633 13.7019 18.7886L13.7019 18.7886L19.0115 22.0536L19.1267 22.1244L19.0955 21.9929L17.6483 15.8805L17.6482 15.8805C17.5936 15.6504 17.6033 15.4096 17.6761 15.1846C17.749 14.9595 17.8823 14.7588 18.0614 14.6044Z" fill="#F5F7F8" stroke="#F5F7F8" stroke-width="0.112276"/>
</svg>
