<svg width="306" height="79" viewBox="0 0 306 79" fill="none" xmlns="http://www.w3.org/2000/svg">
<path fill-rule="evenodd" clip-rule="evenodd" d="M295.582 -0.00585938H305.191V4.79812L305.191 72.8176H302.157V40.4564H295.591L295.591 41.4676H293.062V40.4564H291.04V39.1921H293.062V38.1804H295.591L295.591 39.1921H302.157V4.79849H295.582V-0.00585938ZM301.146 72.8177V78.1278H305.191V72.8177H301.146ZM6.56461 -0.0054813H-0.00976562V4.79887H6.56461V-0.0054813ZM-0.00976562 4.79966H5.04745V57.1418H-0.00976562V4.79966ZM5.04745 70.037H-0.00976562V72.8185H5.04745V70.037ZM20.9766 72.8186H-0.00976562V78.1287H24.012V72.8186H24.0109V52.0853H20.9766V72.8186ZM20.2196 -0.0054813H26.2883V4.79887H20.2196V-0.0054813ZM44.7475 -0.0054813H40.196V4.79887H44.7475V-0.0054813ZM58.6538 -0.0054813H63.4581V4.79887H58.6538V-0.0054813ZM82.9299 -0.0054813H77.367V4.79887H82.9299V-0.0054813ZM96.8372 -0.0054813H101.642V4.79887H96.8372V-0.0054813ZM119.594 -0.0054813H115.548V4.79887H119.594V-0.0054813ZM133.5 -0.0054813H140.074V4.79887H133.5V-0.0054813ZM159.039 -0.0054813H153.729V4.79887H159.039V-0.0054813ZM172.693 -0.0054813H178.256V4.79887H172.693V-0.0054813ZM217.45 -0.0054813H211.381V4.79887H217.45V-0.0054813ZM231.105 -0.0054813H235.15V4.79887H231.105V-0.0054813ZM254.367 -0.0054813H248.804V4.79887H254.367V-0.0054813ZM267.768 -0.0054813H282.181V4.79887H267.768V-0.0054813ZM250.834 72.8186H250.828V78.1287H274.85V72.8186H273.847V40.4564H281.43V39.1921H273.847V37.4223H269.296V72.8186H262.469V71.8115H261.457V72.8186H253.11V44.2493H254.627V41.7207H253.11H253.11H250.834V72.8186ZM287.24 72.8186H288.757V78.1287H287.24V72.8186ZM214.669 75.0947H211.381V78.129H214.669V75.0947ZM172.947 75.0947H176.235V78.129H172.947V75.0947ZM138.305 75.0947H135.018V78.129H138.305V75.0947ZM98.3533 75.0947H101.641V78.129H98.3533V75.0947ZM62.4483 75.0947H59.1611V78.129H62.4483V75.0947ZM20.9766 4.80011H24.0109V45.7635H20.9766V41.7186H18.1989V40.4543H20.9766V4.80011ZM5.05123 38.6845H6.82125V43.4888H5.05123V38.6845ZM6.82167 40.4543H11.626V41.7186H6.82167V40.4543ZM138.816 34.6391H140.08V38.6844H173.458V35.3977H177.251V38.6844H196.469V41.7187H91.5315V38.6844H97.8517V35.3977H101.645V38.6844H135.528V35.3977H138.816V34.6391ZM26.0398 38.6844H24.017V43.7416H26.0398V38.6844ZM28.0659 38.6844H26.0405V41.7187H85.2099V38.6844H61.4424V35.3977H57.6494V38.6844H29.3302V36.9161H28.0659V38.6844ZM250.834 38.6844H215.179V36.4089H211.386V38.6844H205.318V41.7187H254.626V38.6844H253.363V37.4223H250.834V38.6844ZM211.386 41.7191H215.179V45.0062H211.386V41.7191ZM177.251 41.7191H173.458V44.7534H177.251V41.7191ZM135.528 41.7191V45.0062H139.321V41.7191H135.528ZM97.8517 41.7191H101.645V45.0062H97.8517V41.7191ZM61.4424 41.7191H57.6494V45.0062H61.4424V41.7191ZM244.512 41.7197H250.833V42.7311H244.512V41.7197ZM197.735 -0.00125835H191.919V4.80309H197.735V-0.00125835ZM78.1315 41.7207H79.9015V45.7664H78.1315V41.7207ZM79.9015 51.8354H78.1315V75.0985H79.9015V51.8354ZM187.873 41.7207H189.643V75.0983H187.873V41.7207ZM259.687 41.4682H254.629V42.7325H259.687V41.4682ZM267.776 42.7325V44.5026H269.293V38.9396H267.776V41.4682H264.489V42.7325H267.776ZM283.961 38.1804H281.432V41.4676H283.961V40.4564H286.488V39.1921H283.961V38.1804ZM273.847 4.8033H269.296V31.3537H273.847V4.8033ZM250.834 4.8033H253.363V31.3537H250.834V30.0894H207.343V28.3193H250.834V4.8033ZM199.252 28.3193H160.564V30.0894H199.252V28.3193ZM136.541 28.3193H152.977V30.0894H136.541V28.3193ZM61.1903 28.5724H53.8574V30.0896H61.1903V28.5724ZM39.6962 28.5724H46.5235V30.0896H39.6962V28.5724ZM31.8588 28.5724H28.0659V30.0892V30.0896V32.3649H29.3302V30.0896H31.8588V28.5724ZM136.541 4.8033H138.058V28.3193H136.541V4.8033ZM61.1902 4.8033H60.1787V28.5722H61.1902V4.8033ZM41.4667 4.8033H42.4781V28.5722H41.4667V4.8033ZM261.457 50.0653H262.469V52.0882H261.457V51.077H253.114V50.0655L261.457 50.0653ZM261.457 55.628H253.114V56.6394H261.457V57.3979H262.469V54.8693H261.457V55.628ZM253.114 61.4443H261.457V60.1794H262.469V63.2138H261.457V62.4557H253.114V61.4443ZM261.457 67.5125H253.114V68.524H261.457V69.2828H262.469V66.5013H261.457V67.5125Z" fill="#379777"/>
<path fill-rule="evenodd" clip-rule="evenodd" d="M7.07818 0.504745H19.7212V1.51624H7.0798V2.02196H19.7212V2.7806H7.07993V3.28632H19.7212V4.29765H7.07818V0.504745ZM6.57246 -0.000976562H7.07818H19.7212H20.2269V0.504745V4.29765V4.80337H19.7212H7.07818H6.57246V4.29765V0.504745V-0.000976562ZM26.8014 0.504745H39.6973V4.29765H26.8014L26.8014 3.28632H39.6973V2.7806H26.8014V2.02205H39.6973V1.51633H26.8014L26.8014 0.504745ZM26.2957 -0.000976562H26.8014H39.6973H40.203V0.504745V4.29765V4.80337H39.6973H26.8014H26.2957V4.29765V0.504745V-0.000976562ZM58.1551 0.504745H45.2592V4.29765H58.1551V3.28632H45.2631V2.7806H58.1551V2.02196H45.2632V1.51624H58.1551V0.504745ZM45.2592 -0.000976562H44.7535V0.504745V4.29765V4.80337H45.2592H58.1551H58.6608V4.29765V0.504745V-0.000976562H58.1551H45.2592ZM63.7182 0.504745H76.8669V4.29765H63.7182V3.28632H76.8654V2.7806H63.7182V2.02205H76.8654V1.51633H63.7182V0.504745ZM63.2125 -0.000976562H63.7182H76.8669H77.3727V0.504745V4.29765V4.80337H76.8669H63.7182H63.2125V4.29765V0.504745V-0.000976562ZM96.589 0.504745H83.4403V4.29765H96.589V3.28632H83.4432V2.7806H96.589V2.02196H83.4431V1.51624H96.589V0.504745ZM83.4403 -0.000976562H82.9345V0.504745V4.29765V4.80337H83.4403H96.589H97.0947V4.29765V0.504745V-0.000976562H96.589H83.4403ZM102.155 0.504745H115.303V4.29765H102.155V3.28632H115.302V2.7806H102.155V2.02205H115.302V1.51633H102.155V0.504745ZM101.649 -0.000976562H102.155H115.303H115.809V0.504745V4.29765V4.80337H115.303H102.155H101.649V4.29765V0.504745V-0.000976562ZM133.002 0.504745H119.853V4.29765H133.002V3.28632H119.854V2.7806H133.002V2.02205H119.854V1.51633H133.002V0.504745ZM119.853 -0.000976562H119.347V0.504745V4.29765V4.80337H119.853H133.002H133.508V4.29765V0.504745V-0.000976562H133.002H119.853ZM140.588 0.504745H153.231V1.51633H140.589V2.02205H153.231V2.7806H140.589V3.28632H153.231V4.29765H140.588V0.504745ZM140.082 -0.000976562H140.588H153.231H153.736V0.504745V4.29765V4.80337H153.231H140.588H140.082V4.29765V0.504745V-0.000976562ZM172.195 0.504745H159.552V4.29765H172.195V3.28632H159.554V2.7806H172.195V2.02205H159.554V1.51633H172.195V0.504745ZM159.552 -0.000976562H159.046V0.504745V4.29765V4.80337H159.552H172.195H172.7V4.29765V0.504745V-0.000976562H172.195H159.552ZM178.518 0.504745H191.414V4.29765H178.518V3.28632H191.413V2.7806H178.518V2.02205H191.413V1.51633H178.518V0.504745ZM178.012 -0.000976562H178.518H191.414H191.92V0.504745V4.29765V4.80337H191.414H178.518H178.012V4.29765V0.504745V-0.000976562ZM211.136 0.504745H198.24V4.29765H211.136V3.28632H198.241V2.7806H211.136V2.02205H198.241V1.51633H211.136V0.504745ZM198.24 -0.000976562H197.734V0.504745V4.29765V4.80337H198.24H211.136H211.642V4.29765V0.504745V-0.000976562H211.136H198.24ZM217.964 0.504745H230.607V4.29765H217.964V3.28632H230.606V2.7806H217.964V2.02196H230.606V1.51624H217.964V0.504745ZM217.459 -0.000976562H217.964H230.607H231.113V0.504745V4.29765V4.80337H230.607H217.964H217.459V4.29765V0.504745V-0.000976562ZM248.307 0.504745H235.664V4.29765H248.307V3.28632H235.665V2.7806H248.307V2.02205H235.665V1.51633H248.307V0.504745ZM235.664 -0.000976562H235.158V0.504745V4.29765V4.80337H235.664H248.307H248.813V4.29765V0.504745V-0.000976562H248.307H235.664ZM254.628 0.504745H267.271V1.51633H254.629V2.02205H267.271V2.7806H254.629V3.28632H267.271V4.29765H254.628V0.504745ZM254.122 -0.000976562H254.628H267.271H267.777V0.504745V4.29765V4.80337H267.271H254.628H254.122V4.29765V0.504745V-0.000976562ZM295.086 0.504745H282.696V1.51624H295.083V2.02196H282.696V2.7806H295.083V3.28632H282.696V4.29765H295.086V0.504745ZM282.696 -0.000976562H282.19V0.504745V4.29765V4.80337H282.696H295.086H295.592V4.29765V0.504745V-0.000976562H295.086H282.696ZM289.272 73.3283H300.651V77.6269H289.272V76.3624H300.647V75.8567H289.272V75.0982H300.647V74.5924H289.272V73.3283ZM288.766 72.8226H289.272H300.651H301.156V73.3283V77.6269V78.1326H300.651H289.272H288.766V77.6269V73.3283V72.8226ZM286.742 73.3283H275.364V74.5924H286.739V75.0982H275.364V75.8567H286.739V76.3624H275.364V77.6269H286.742V73.3283ZM275.364 72.8226H274.858V73.3283V77.6269V78.1326H275.364H286.742H287.248V77.6269V73.3283V72.8226H286.742H275.364ZM215.183 75.6043H250.33L250.33 75.8573H215.183V76.363H250.33V76.8685H215.183V77.3742H250.33L250.33 77.6272H215.183V75.6043ZM214.677 75.0986H215.183H250.33H250.836V75.6043V77.6272V78.1329H250.33H215.183H214.677V77.6272V75.6043V75.0986ZM210.885 75.6043H176.749V75.8573H210.882V76.363H176.749V76.8685H210.882V77.3742H176.749V77.6272H210.885V75.6043ZM176.749 75.0986H176.243V75.6043V77.6272V78.1329H176.749H210.885H211.391V77.6272V75.6043V75.0986H210.885H176.749ZM138.817 75.6043H172.448V77.6272H138.817V77.3742H172.446V76.8685H138.817V76.363H172.446V75.8573H138.817V75.6043ZM138.311 75.0986H138.817H172.448H172.953V75.6043V77.6272V78.1329H172.448H138.817H138.311V77.6272V75.6043V75.0986ZM134.521 75.6043H102.155V75.8573H134.52V76.363H102.155V76.8685H134.52V77.3742H102.155V77.6272H134.521V75.6043ZM102.155 75.0986H101.649V75.6043V77.6272V78.1329H102.155H134.521H135.027V77.6272V75.6043V75.0986H134.521H102.155ZM62.9601 75.6043H97.8549V75.8571H62.9606V76.3629H97.8549V76.8685H62.9606V77.3742H97.8549V77.6272H62.9601V75.6043ZM62.4544 75.0986H62.9601H97.8549H98.3606V75.6043V77.6272V78.1329H97.8549H62.9601H62.4544V77.6272V75.6043V75.0986ZM58.661 75.6043H24.5248V75.8573H58.6594V76.363H24.5248V76.8685H58.6594V77.3742H24.5248V77.6272H58.661V75.6043ZM24.5248 75.0986H24.0191V75.6043V77.6272V78.1329H24.5248H58.661H59.1667V77.6272V75.6043V75.0986H58.661H24.5248ZM2.02107 57.6515H3.0327L3.0327 69.5355H3.53842L3.53843 57.6515H4.54954V69.536H0.503768V57.6515H1.51535L1.51535 69.5355H2.02107L2.02107 57.6515ZM-0.00195312 57.1458H0.503768H4.54954H5.05526V57.6515V69.536V70.0417H4.54954H0.503768H-0.00195312V69.536V57.6515V57.1458ZM20.9869 5.05657H5.05664V4.80371H20.9869V5.05657ZM13.9065 14.1595H12.8963L12.8963 34.1355H13.9065L13.9065 14.1595ZM14.1594 14.1595L14.1594 34.3884L13.9065 34.3884L12.8963 34.3883L12.6434 34.3884L12.6434 14.1595H5.05664V13.9067H20.9869V14.1595H14.1594ZM14.1596 16.1825L20.9868 16.1825V15.9296H14.1596V16.1825ZM20.9868 18.4585L14.1596 18.4585V18.2056H20.9868V18.4585ZM14.1596 20.7345H20.9868V20.4816H14.1596V20.7345ZM20.9868 23.0094H14.1596V22.7565L20.9868 22.7565V23.0094ZM14.1596 25.2854H20.9868V25.0325L14.1596 25.0325V25.2854ZM20.9868 27.5614H14.1596V27.3086L20.9868 27.3086V27.5614ZM14.1596 29.8369H20.9868V29.584L14.1596 29.584V29.8369ZM20.9868 32.1123H14.1596V31.8595L20.9868 31.8595V32.1123ZM14.1596 34.3883H20.9868V34.1355L14.1596 34.1355V34.3883ZM12.6425 16.1825L5.05664 16.1825V15.9296H12.6425V16.1825ZM5.05664 20.7345H12.6425V20.4816H5.05664V20.7345ZM12.6425 25.2854H5.05664V25.0325L12.6425 25.0325V25.2854ZM5.05664 29.8369H12.6425V29.584L5.05664 29.584V29.8369ZM12.6425 18.4585L5.05664 18.4585V18.2056H12.6425V18.4585ZM5.05664 23.0094H12.6425V22.7565L5.05664 22.7565V23.0094ZM12.6425 27.5614H5.05664V27.3086L12.6425 27.3086V27.5614ZM5.05664 32.1123H12.6425V31.8595L5.05664 31.8595V32.1123ZM12.6425 34.3883H5.05664V34.1355L12.6425 34.1355V34.3883ZM253.365 5.05657H269.295V4.80371H253.365V5.05657ZM261.205 13.4014H262.215V31.1014H261.205V13.4014ZM262.468 31.3545V13.4014H269.295V13.1486H253.365V13.4014H260.952V31.3545H261.205V31.3542H262.215V31.3545H262.468ZM269.295 15.4238L262.468 15.4238V15.1709L269.295 15.1709V15.4238ZM262.468 17.6998L269.295 17.6998V17.4469H262.468V17.6998ZM269.295 19.9753L262.468 19.9753V19.7224H269.295V19.9753ZM262.468 22.2513H269.295V21.9984L262.468 21.9984V22.2513ZM269.295 24.5267H262.468V24.2739L269.295 24.2739V24.5267ZM262.468 26.8027H269.295V26.5499L262.468 26.5499V26.8027ZM269.295 29.0788H262.468V28.8259L269.295 28.8259V29.0788ZM262.468 31.3542H269.295V31.1014L262.468 31.1014V31.3542ZM260.951 15.4238L253.365 15.4238V15.1709L260.951 15.1709V15.4238ZM253.365 19.9753L260.951 19.9753V19.7224H253.365V19.9753ZM260.951 24.5267H253.365V24.2739L260.951 24.2739V24.5267ZM253.365 29.0788H260.951V28.8259L253.365 28.8259V29.0788ZM260.951 17.6998L253.365 17.6998V17.4469H260.951V17.6998ZM253.365 22.2513H260.951V21.9984L253.365 21.9984V22.2513ZM260.951 26.8027H253.365V26.5499L260.951 26.5499V26.8027ZM253.365 31.3542H260.951V31.1014L253.365 31.1014V31.3542ZM14.665 41.7214V42.7329H14.9178V41.7214H17.9518H18.2047V41.4685V40.7099V40.4571H17.9518H14.9178V37.9285H14.665V40.4571H11.8831H11.6303V40.7099V41.4685V41.7214H11.8831H14.665ZM14.9178 41.4685H17.9518V40.7099H14.9178V41.4685ZM14.665 40.7099V41.4685H11.8831V40.7099H14.665ZM35.6509 31.1014V30.0897H32.111H31.8581V29.8368V28.8254V28.5725H32.111H35.6509V27.5613H35.9038V28.5725H39.4439H39.6968V28.8254V29.8368V30.0897H39.4439H35.9038V31.1014H35.6509ZM39.4439 29.8368H35.9038V28.8254H39.4439V29.8368ZM35.6509 29.8368V28.8254H32.111V29.8368H35.6509ZM24.2742 37.984V29.4831L25.909 33.7336L24.2742 37.984ZM24.3717 38.435L26.0445 34.0858L27.7173 38.435H24.3717ZM26.1799 33.7336L27.8143 37.9828V29.4843L26.1799 33.7336ZM28.0671 28.8262V28.5734H27.8143H24.2742H24.0214V28.8256V28.8263V38.435V38.6878H24.2742H24.2744H27.8143H28.0671V38.435V28.8269L28.0673 28.8263L28.0671 28.8262ZM27.7964 28.8263L26.0445 33.3814L24.2925 28.8263H27.7964ZM28.3201 36.6651V32.6194H29.0787V36.6651H28.3201ZM28.0672 36.918V36.6651V32.6194V32.3665H28.3201H29.0787H29.3315V32.6194V36.6651V36.918H29.0787H28.3201H28.0672ZM21.2379 46.0197V48.5483H23.7665V46.0197H21.2379ZM19.4676 48.5483H20.985V46.0197V45.7669H21.2379H23.7665H24.0193V46.0197V48.5483H25.5363V48.8012H24.0193V51.8355V52.0884H23.7665H21.2379H20.985V51.8355V48.8012H19.4676V48.5483ZM23.7665 51.8355V48.8012H21.2379V51.8355H23.7665ZM50.0676 30.0899V30.8485H50.3205V30.0899H53.608H53.8609V29.837V28.8256V28.5727H53.608H50.3205V27.5613H50.0676V28.5727H46.7808H46.5279V28.8256V29.837V30.0899H46.7808H50.0676ZM50.3205 29.837H53.608V28.8256L50.3205 28.8256V29.837ZM50.0676 28.8256V29.837H46.7808V28.8256H50.0676ZM78.3853 46.0212V48.5495H79.6496V46.0212H78.3853ZM76.8681 48.5495H78.1324V46.0212V45.7684H78.3853H79.6496H79.9024V46.0212V48.5495H81.1668V48.8023H79.9024V51.5842V51.837H79.6496H78.3853H78.1324V51.5842V48.8023H76.8681V48.5495ZM79.6496 51.5842V48.8023H78.3853V51.5842H79.6496ZM88.2466 41.7219V42.9867H88.4995V41.7219H91.2806H91.5334V41.4691L91.5334 38.9405V38.6876H91.2806H88.4995V37.6766H88.2466V38.6876H85.4648H85.2119V38.9405V41.4691V41.7219H85.4648H88.2466ZM88.4995 41.4691H91.2806V38.9405H88.4995V41.4691ZM88.2466 38.9405V41.4691H85.4648V38.9405H88.2466ZM139.071 30.3429V32.3657H139.829V30.3429H139.071ZM138.059 32.3657H138.818V30.3429V30.0901H139.071H139.829H140.082V30.3429V32.3657H141.093V32.6186H140.082V34.3887V34.6415H139.829H139.071H138.818V34.3887V32.6186H138.059V32.3657ZM139.829 34.3887V32.6186H139.071V34.3887H139.829ZM156.772 30.0904V30.8492H157.025V30.0904H160.313H160.565V29.8376V28.5733V28.3204H160.313H157.025V27.0563H156.772V28.3204H153.232H152.98V28.5733V29.8376V30.0904H153.232H156.772ZM157.025 29.8376H160.313V28.5733H157.025V29.8376ZM156.772 28.5733V29.8376H153.232V28.5733H156.772ZM203.299 31.102V30.0903H199.507H199.254V29.8375V28.5732V28.3203H199.507H203.299V27.0562H203.552V28.3203H207.093H207.346V28.5732V29.8375V30.0903H207.093H203.552V31.102H203.299ZM207.093 29.8375H203.552V28.5732H207.093V29.8375ZM203.299 29.8375V28.5732H199.507V29.8375H203.299ZM200.771 41.7218V42.9866H201.024V41.7218H205.07H205.323V41.4689V38.9403V38.6875H205.07H201.024V37.6765H200.771V38.6875H196.725H196.472V38.9403V41.4689V41.7218H196.725H200.771ZM201.024 41.4689H205.07V38.9403H201.024V41.4689ZM200.771 38.9403V41.4689H196.725V38.9403H200.771ZM253.11 31.607H251.087V34.1354H253.11V31.607ZM249.064 34.1354H250.834V31.607V31.3541H251.087H253.11H253.363V31.607V34.1354H254.627V34.3882H253.363V37.1699V37.4228H253.11H251.087H250.834V37.1699V34.3882H249.064V34.1354ZM253.11 37.1699V34.3882H251.087V37.1699H253.11ZM269.549 31.6068H273.594V33.8827H269.549V31.6068ZM269.296 33.8827H268.285V34.1356H269.296V37.1697V37.4226H269.549H273.594H273.847V37.1697V34.1356H274.353V33.8827H273.847V31.6068V31.354H273.594H269.549H269.296V31.6068V33.8827ZM273.594 34.1356V37.1697H269.549V34.1356H273.594ZM261.964 43.7443V42.7325H259.942H259.689V42.4797V41.7211V41.4682H259.942H261.964V40.4571H262.217V41.4682H264.24H264.493V41.7211V42.4797V42.7325H264.24H262.217V43.7443H261.964ZM264.24 42.4797H262.217V41.7211H264.24V42.4797ZM261.964 42.4797V41.7211H259.942V42.4797H261.964ZM261.711 52.3424H262.217V53.3541H261.711V52.3424ZM262.47 52.3424V53.3541H262.976V53.6069H262.47V54.6182V54.8711H262.217H261.711H261.459V54.6182V53.6069H260.954V53.3541H261.459V52.3424V52.0896H261.711H262.217H262.47V52.3424ZM261.711 53.6069H262.217V54.6182H261.711V53.6069ZM261.711 57.6526H262.217V58.6636H261.711V57.6526ZM261.459 58.6636H260.954V58.9165H261.459V59.9283V60.1812H261.711H262.217H262.47V59.9283V58.9165H262.976V58.6636H262.47V57.6526V57.3997H262.217H261.711H261.459V57.6526V58.6636ZM262.217 58.9165V59.9283H261.711V58.9165H262.217ZM262.217 63.4683H261.711V64.733H262.217V63.4683ZM260.954 64.733H261.459V63.4683V63.2155H261.711H262.217H262.47V63.4683V64.733H262.976V64.9859H262.47V66.2498V66.5027H262.217H261.711H261.459V66.2498V64.9859H260.954V64.733ZM262.217 66.2498V64.9859H261.711V66.2498H262.217ZM261.711 69.5366H262.217V70.5488H261.711V69.5366ZM261.459 70.5488H260.954V70.8016H261.459V71.5595V71.8123H261.711H262.217H262.47V71.5595V70.8016H262.976V70.5488H262.47V69.5366V69.2837H262.217H261.711H261.459V69.5366V70.5488ZM262.217 70.8016V71.5595H261.711V70.8016H262.217ZM288.513 40.9625V40.4569H286.745H286.492V40.204V39.4454V39.1926H286.745H288.513V38.4339H288.766V39.1926H290.791H291.044V39.4454V40.204V40.4569H290.791H288.766V40.9625H288.513ZM290.791 40.204H288.766V39.4454H290.791V40.204ZM288.513 40.204V39.4454H286.745V40.204H288.513Z" fill="#F5F7F8"/>
<path d="M266 15.5C266 15.2239 265.776 15 265.5 15C265.224 15 265 15.2239 265 15.5H266ZM265.5 35.5V36H266V35.5H265.5ZM256.5 35.5H256V36H256.5V35.5ZM256.854 15.1464C256.658 14.9512 256.342 14.9512 256.146 15.1464L252.964 18.3284C252.769 18.5237 252.769 18.8403 252.964 19.0355C253.16 19.2308 253.476 19.2308 253.672 19.0355L256.5 16.2071L259.328 19.0355C259.524 19.2308 259.84 19.2308 260.036 19.0355C260.231 18.8403 260.231 18.5237 260.036 18.3284L256.854 15.1464ZM265 15.5V35.5H266V15.5H265ZM265.5 35H256.5V36H265.5V35ZM257 35.5V15.5H256V35.5H257Z" fill="#F4CE14"/>
</svg>
