<svg width="30" height="24" viewBox="0 0 30 24" fill="none" xmlns="http://www.w3.org/2000/svg">
<path d="M13.5341 10.9667L11.5909 9.06666C11.4545 8.93333 11.3068 8.83333 11.1477 8.76666C10.9886 8.69999 10.8236 8.66666 10.6527 8.66666C10.4818 8.66666 10.3118 8.69999 10.1427 8.76666C9.97363 8.83333 9.82 8.93333 9.68182 9.06666C9.43182 9.3111 9.30682 9.62221 9.30682 9.99999C9.30682 10.3778 9.43182 10.6889 9.68182 10.9333L12.5795 13.8C12.8523 14.0667 13.1705 14.2 13.5341 14.2C13.8977 14.2 14.2159 14.0667 14.4886 13.8L20.8295 8.13333C20.8295 7.77777 20.8068 7.43333 20.7614 7.09999C20.7159 6.76666 20.5682 6.47777 20.3182 6.23333C20.0455 5.96666 19.7214 5.83333 19.3459 5.83333C18.9705 5.83333 18.6468 5.96666 18.375 6.23333L13.5341 10.9667ZM0 24V21.3333H28.6364C29.0227 21.3333 29.3468 21.4613 29.6086 21.7173C29.8704 21.9733 30.0009 22.2898 30 22.6666C29.9991 23.0435 29.8682 23.3604 29.6073 23.6173C29.3464 23.8742 29.0227 24.0018 28.6364 24H0ZM4.09091 20C3.34091 20 2.69909 19.7391 2.16545 19.2173C1.63182 18.6955 1.36455 18.0675 1.36364 17.3333V2.66666C1.36364 1.93333 1.63091 1.30578 2.16545 0.783999C2.7 0.262222 3.34182 0.000888888 4.09091 0H25.9091C26.6591 0 27.3014 0.261333 27.8359 0.783999C28.3704 1.30667 28.6373 1.93422 28.6364 2.66666V17.3333C28.6364 18.0667 28.3695 18.6947 27.8359 19.2173C27.3023 19.74 26.66 20.0009 25.9091 20H4.09091ZM4.09091 17.3333H25.9091V2.66666H4.09091V17.3333Z" fill="#F5F7F8"/>
</svg>
