<svg width="306" height="79" viewBox="0 0 306 79" fill="none" xmlns="http://www.w3.org/2000/svg">
<path fill-rule="evenodd" clip-rule="evenodd" d="M22 5.25286H5.00004V5H22V5.25286ZM14.4439 14.3554H13.3482V34.5842H13.0954L13.0954 14.3554H5V14.1025H22V14.3554H14.6968L14.6968 34.5842H14.4439L14.4439 14.3554ZM14.7149 16.3788L22.0006 16.3788V16.1259L14.7149 16.1259V16.3788ZM22.0006 18.6552L14.7149 18.6552V18.4023L22.0006 18.4023V18.6552ZM14.7149 20.9306L22.0006 20.9306V20.6777L14.7149 20.6777V20.9306ZM22.0006 23.206H14.7149V22.9531L22.0006 22.9531V23.206ZM14.7149 25.4813H22.0006V25.2285L14.7149 25.2285V25.4813ZM22.0006 27.7577H14.7149V27.5049L22.0006 27.5049V27.7577ZM14.7149 30.0331H22.0006V29.7802L14.7149 29.7802V30.0331ZM22.0006 32.3085H14.7149V32.0556L22.0006 32.0556V32.3085ZM14.7149 34.5849H22.0006V34.332L14.7149 34.332V34.5849ZM13.0953 16.3787L5.00004 16.3787L5.00004 16.1259H13.0953V16.3787ZM5.00004 20.9308L13.0953 20.9308V20.6779L5.00004 20.6779L5.00004 20.9308ZM13.0952 25.4813H5V25.2285L13.0952 25.2285V25.4813ZM5.00004 30.0332H13.0953V29.7803L5.00004 29.7803L5.00004 30.0332ZM13.0952 18.6552L5 18.6552V18.4023L13.0952 18.4023V18.6552ZM5 23.206H13.0952V22.9531L5 22.9531V23.206ZM13.0953 27.7577H5.00004L5.00004 27.5049L13.0953 27.5049V27.7577ZM5.00004 32.3086H13.0953V32.0557L5.00004 32.0557L5.00004 32.3086ZM13.0953 34.5846H5.00004L5.00004 34.3318L13.0953 34.3318V34.5846ZM13.3642 34.5849H14.4436V34.332H13.3642V34.5849Z" fill="#F5F7F8"/>
<path fill-rule="evenodd" clip-rule="evenodd" d="M269.93 5.25286H253V5H269.93V5.25286ZM262.404 13.5977H261.315L261.315 31.5508H261.062L261.062 13.5977H253V13.3449H269.93V13.5977H262.657L262.657 31.5508H262.405V31.5508H261.33V31.2979H262.404L262.404 13.5977ZM262.676 15.6201L269.932 15.6201L269.932 15.3673L262.676 15.3673V15.6201ZM269.932 17.8965L262.676 17.8965V17.6436L269.932 17.6436L269.932 17.8965ZM262.676 20.1719L269.932 20.1719L269.932 19.919L262.676 19.919V20.1719ZM269.932 22.4473H262.676V22.1944L269.932 22.1944L269.932 22.4473ZM262.676 24.7227H269.932L269.932 24.4698L262.676 24.4698V24.7227ZM269.932 26.999H262.676V26.7462L269.932 26.7462L269.932 26.999ZM262.676 29.2754H269.932L269.932 29.0225L262.676 29.0225V29.2754ZM269.932 31.5508H262.676V31.2979L269.932 31.2979L269.932 31.5508ZM253 15.6201L261.062 15.6201V15.3672L253 15.3672V15.6201ZM261.062 20.1719L253 20.1719V19.919L261.062 19.919V20.1719ZM253 24.7227H261.062V24.4698L253 24.4698V24.7227ZM261.062 29.2754H253V29.0225L261.062 29.0225V29.2754ZM253 17.8965L261.062 17.8965V17.6436L253 17.6436V17.8965ZM261.062 22.4473H253V22.1944L261.062 22.1944V22.4473ZM253 26.999H261.062V26.7462L253 26.7462V26.999ZM261.062 31.5508H253V31.2979L261.062 31.2979V31.5508Z" fill="#F5F7F8"/>
<path fill-rule="evenodd" clip-rule="evenodd" d="M305.496 -0.000976562H296.085V5.06668L302.601 5.06658V38.8518H296.093V37.6452H293.68V38.8518H291.507V40.0583H293.68V41.265H296.093V40.0583H302.601V73.8419H305.497V5.06658L305.496 5.06668V-0.000976562ZM5.05789 73.8419H24.6046V78.9096H-0.00976562V73.8419V71.1874H5.05789V73.8419ZM250.961 73.8419H250.967V37.4032H253.38L253.38 39.8169H255.31V41.0234H259.653V42.23L255.31 42.23H253.38L253.38 73.8419H269.788V66.3618H273.891V73.8419H275.334V78.9096H250.961V73.8419ZM268.093 -0.000976562H282.089V5.06668H268.093V-0.000976562ZM254.338 -0.000976562H248.788V5.06668H254.338V-0.000976562ZM231.413 -0.000976562H235.274V5.06668H231.413V-0.000976562ZM217.658 -0.000976562H211.625V5.06668H217.658V-0.000976562ZM192.32 -0.000976562H197.87V5.06668H192.32V-0.000976562ZM178.565 -0.000976562H173.015V5.06668H178.565V-0.000976562ZM153.95 -0.000976562H159.5V5.06668H153.95V-0.000976562ZM140.194 -0.000976562H133.678V5.06668H140.194V-0.000976562ZM115.581 -0.000976562H119.683V5.06668H115.581V-0.000976562ZM101.827 -0.000976562H97.0004V5.06668H101.827V-0.000976562ZM77.6947 -0.000976562H83.0037V5.06668H77.6947V-0.000976562ZM63.698 -0.000976562H58.389V5.06668H63.698V-0.000976562ZM40.5307 -0.000976562H45.1157V5.06668H40.5307V-0.000976562ZM26.536 -0.000976562H20.5031V5.06668H26.536V-0.000976562ZM-0.00976562 -0.000976562H6.74711V5.06668H5.05789V57.915H-0.00976562V5.06668V5.06658V-0.000976562ZM301.636 73.8419V78.9096H305.498V73.8419H301.636ZM289.328 73.8419H287.88V78.9096H289.328V73.8419ZM59.8376 75.7727H62.9747V78.9098H59.8376V75.7727ZM102.068 75.7727H98.9307V78.9098H102.068V75.7727ZM135.369 75.7727H138.506V78.9098H135.369V75.7727ZM176.635 75.7727H173.498V78.9098H176.635V75.7727ZM211.867 75.7727H215.004V78.9098H211.867V75.7727ZM24.6068 5.06694H21.711V40.058H18.8181V41.2646H21.711V46.3321H24.6068V5.06694ZM21.711 53.0886H24.6068V73.8419H21.711V53.0886ZM6.99339 38.1271H5.06286V43.1948H6.99339V41.2646H11.5769V40.058H6.99339V38.1271ZM28.4724 29.6818H29.679V33.3015H28.4724V29.6818ZM41.5034 42.4715H26.5436V44.402H24.6131V40.0583H26.5422H26.5436H28.4724V37.6452H29.679V40.0583H58.1546V36.1973H61.7744V40.0583H98.2134V36.1973H101.833V40.0583H135.857V36.1973H139.477V40.0583H173.986V36.1973H177.606V40.0583H193.532V32.3362H196.187V40.0583H196.188V42.4715L196.187 42.4716H193.532L177.606 42.4715V43.1955H173.986V42.4715H139.477V43.1955H135.857V42.4715H101.833V43.1955H98.2134V42.4715H61.7744V43.1955H58.1546V42.4715H42.9513V46.3324H41.5034V42.4715ZM41.5034 52.6065H42.9513V75.7729H41.5034V52.6065ZM196.187 5.06765H193.532V22.2012H196.187V5.06765ZM233.108 5.06765H234.315V29.682H233.108V5.06765ZM239.866 28.2338H234.316V29.6817H239.866V28.2338ZM250.967 29.6817V30.6472H253.38V5.06765H250.967V28.2338H246.382V29.6817H250.967ZM250.966 38.6103H244.933V39.0932H215.252V41.7477H244.933V42.2301H250.966V38.6103ZM265.204 41.0234H269.788V37.4032H273.891V59.3631H269.788V42.23H265.204V41.0234ZM286.681 38.8518H284.268V37.6452H281.855V38.8518H273.891V40.0583H281.855V41.265H284.268V40.0583H286.681V38.8518ZM215.251 36.6801H211.631V41.7478H215.251V36.6801ZM273.891 5.06765H269.788V30.6472H273.891V5.06765Z" fill="#379777"/>
<path fill-rule="evenodd" clip-rule="evenodd" d="M7.23323 0.482634H20.023V1.44773H7.23396V1.93036H20.023V3.13653H7.23396V3.61916H20.023V4.58502H7.23323V0.482634ZM6.75059 0H7.23323H20.023H20.5057V0.482634V4.58502V5.06766H20.023H7.23323H6.75059V4.58502V0.482634V0ZM27.0206 0.482634H40.0517V1.44773H27.0216V1.93036H40.0517V3.13653H27.0216V3.61916H40.0517V4.58502H27.0206V0.482634ZM26.538 0H27.0206H40.0517H40.5344V0.482634V4.58502V5.06766H40.0517H27.0206H26.538V4.58502V0.482634V0ZM57.9104 0.482634H45.6032V1.44773H57.91V1.93036H45.6032V3.13653H57.91V3.61916H45.6032V4.58502H57.9104V0.482634ZM45.6032 0H45.1206V0.482634V4.58502V5.06766H45.6032H57.9104H58.393V4.58502V0.482634V0H57.9104H45.6032ZM64.1835 0.482634H77.2146V4.58502H64.1835V3.61916H77.2144V3.13653H64.1835V1.93036H77.2144V1.44773H64.1835V0.482634ZM63.7008 0H64.1835H77.2146H77.6972V0.482634V4.58502V5.06766H77.2146H64.1835H63.7008V4.58502V0.482634V0ZM96.5191 0.482634H83.488V1.44773H96.5188V1.93036H83.488V3.13653H96.5188V3.61916H83.488V4.58502H96.5191V0.482634ZM83.488 0H83.0054V0.482634V4.58502V5.06766H83.488H96.5191H97.0018V4.58502V0.482634V0H96.5191H83.488ZM102.313 0.482634H115.103V1.44773H102.314V1.93036H115.103V3.13653H102.314V3.61916H115.103V4.58502H102.313V0.482634ZM101.831 0H102.313H115.103H115.586V0.482634V4.58502V5.06766H115.103H102.313H101.831V4.58502V0.482634V0ZM133.201 0.482634H120.17V4.58502H133.201V3.61916H120.171V3.13653H133.201V1.93036H120.171V1.44773H133.201V0.482634ZM120.17 0H119.688V0.482634V4.58502V5.06766H120.17H133.201H133.684V4.58502V0.482634V0H133.201H120.17ZM140.681 0.482634H153.471V1.44773H140.682V1.93036H153.471V3.13653H140.682V3.61916H153.471V4.58502H140.681V0.482634ZM140.198 0H140.681H153.471H153.953V0.482634V4.58502V5.06766H153.471H140.681H140.198V4.58502V0.482634V0ZM172.534 0.482634H159.985V4.58502H172.534V3.61916H159.986V3.13653H172.534V1.93036H159.986V1.44773H172.534V0.482634ZM159.985 0H159.503V0.482634V4.58502V5.06766H159.985H172.534H173.017V4.58502V0.482634V0H172.534H159.985ZM179.052 0.482634H191.842V4.58502H179.052V3.61916H191.841V3.13653H179.052V1.93036H191.841V1.44773H179.052V0.482634ZM178.569 0H179.052H191.842H192.324V0.482634V4.58502V5.06766H191.842H179.052H178.569V4.58502V0.482634V0ZM211.146 0.482634H198.357V4.58502H211.146V3.61916H198.358V3.13653H211.146V1.93036H198.358V1.44773H211.146V0.482634ZM198.357 0H197.874V0.482634V4.58502V5.06766H198.357H211.146H211.629V4.58502V0.482634V0H211.146H198.357ZM218.144 0.482634H230.934V4.58502H218.144V3.61916H230.933V3.13653H218.144V1.93036H230.933V1.44773H218.144V0.482634ZM217.661 0H218.144H230.934H231.416V0.482634V4.58502V5.06766H230.934H218.144H217.661V4.58502V0.482634V0ZM248.31 0.482634H235.762V1.44773H248.308V1.93036H235.762V3.13653H248.308V3.61916H235.762V4.58502H248.31V0.482634ZM235.762 0H235.279V0.482634V4.58502V5.06766H235.762H248.31H248.793V4.58502V0.482634V0H248.31H235.762ZM254.825 0.482634H267.615V1.44773H254.826V1.93036H267.615V3.13653H254.826V3.61916H267.615V4.58502H254.825V0.482634ZM254.342 0H254.825H267.615H268.098V0.482634V4.58502V5.06766H267.615H254.825H254.342V4.58502V0.482634V0ZM295.607 0.482634H282.576V1.44773H295.606V1.93036H282.576V3.13653H295.606V3.61916H282.576V4.58502H295.607V0.482634ZM282.576 0H282.093V0.482634V4.58502V5.06766H282.576H295.607H296.09V4.58502V0.482634V0H295.607H282.576ZM289.816 74.3255H301.158V78.4279H289.816V77.704H301.156V77.2214H289.816V76.0152H301.156V75.5326H289.816V74.3255ZM289.334 73.8429H289.816H301.158H301.641V74.3255V78.4279V78.9105H301.158H289.816H289.334V78.4279V74.3255V73.8429ZM287.403 74.3255H275.82V75.5326H287.402V76.0152H275.82V77.2214H287.402V77.704H275.82V78.4279H287.403V74.3255ZM275.82 73.8429H275.337V74.3255V78.4279V78.9105H275.82H287.403H287.885V78.4279V74.3255V73.8429H287.403H275.82ZM4.57916 58.3986L4.57916 70.7057H0.476775L0.476775 58.3986H1.44342L1.44342 70.7052H1.92605L1.92605 58.3986H3.13221L3.13221 70.7052H3.61485L3.61485 58.3986H4.57916ZM5.0618 57.9159V58.3986L5.0618 70.7057V71.1884H4.57916H0.476775H-0.00585938V70.7057V58.3986V57.9159H0.476775H4.57916H5.0618ZM25.0896 78.4278H59.3566V77.9443H25.0909V77.4617H59.3566V77.2212H25.0909V76.7386H59.3566V76.256L25.0896 76.256V78.4278ZM59.3566 78.9104H59.8392V78.4278V76.256V75.7733H59.3566L25.0896 75.7733H24.607V76.256V78.4278V78.9104H25.0896H59.3566ZM98.4509 78.4278H63.4599V77.9449H98.4507V77.4623H63.4599V77.2212H98.4507V76.7386H63.4599V76.256L98.4509 76.256V78.4278ZM98.9335 78.9104H98.4509H63.4599H62.9773V78.4278V76.256V75.7733H63.4599L98.4509 75.7733H98.9335V76.256V78.4278V78.9104ZM102.554 78.4278H134.891V76.256L102.554 76.256L102.554 76.7386H134.891V77.2212H102.554V77.4617H134.891V77.9443H102.554L102.554 78.4278ZM134.891 78.9104H135.373V78.4278V76.256V75.7733H134.891L102.554 75.7733H102.072V76.256V78.4278V78.9104H102.554H134.891ZM173.017 78.4278H138.991V76.256L173.017 76.256V76.7386H138.991V77.2212H173.017V77.4623H138.991V77.9449H173.017V78.4278ZM173.499 78.9104H173.017H138.991H138.509V78.4278V76.256V75.7733H138.991L173.017 75.7733H173.499V76.256V78.4278V78.9104ZM177.119 78.4278H211.627V77.9443H177.122V77.4617H211.627V77.2212H177.122V76.7386H211.627V76.256L177.119 76.256V78.4278ZM211.627 78.9104H212.11V78.4278V76.256V75.7733H211.627L177.119 75.7733H176.636V76.256V78.4278V78.9104H177.119H211.627ZM250.48 78.4278H215.489V76.256L250.48 76.256V76.7388H215.491V77.2214H250.48V77.4625H215.491V77.9451H250.48V78.4278ZM250.963 78.9104H250.48H215.489H215.006V78.4278V76.256V75.7733H215.489L250.48 75.7733H250.963V76.256V78.4278V78.9104ZM28.1445 29.9235H24.8667L26.5056 34.5124L28.1445 29.9235ZM28.2307 29.6822H28.2302H24.8518H24.6105V29.9235V29.9236V39.8175V40.0588H24.8518H28.2302V40.0589L28.2305 40.0588H28.4716V39.8175V37.6455H28.7123H29.4362H29.6775V37.4042V33.5431V33.3018H29.4362H28.7123H28.4716V29.9235V29.6822H28.2307ZM28.2302 30.4009L26.6337 34.8712L28.2302 39.3415V30.4009ZM26.3775 34.8712L24.8518 30.5993V39.143L26.3775 34.8712ZM24.8672 39.8175L26.5056 35.2299L28.144 39.8175H24.8672ZM28.7123 33.5431H29.4362V37.4042H28.7123V33.5431ZM18.5785 41.024V40.3001H15.441V41.024H18.5785ZM15.1996 41.024V40.3001H11.8216V41.024H15.1996ZM11.8216 40.0587H15.1996V38.1279H15.441V40.0587H18.5785H18.8198V40.3001V41.024V41.2653H18.5785H15.441V42.4716H15.1996V41.2653H11.8216H11.5803V41.024V40.3001V40.0587H11.8216ZM291.267 39.0929V39.8169H289.335V39.0929H291.267ZM289.094 39.0929V39.8169H286.923V39.0929H289.094ZM289.094 38.8516H286.923H286.682V39.0929V39.8169V40.0582H286.923H289.094V41.0235H289.335V40.0582H291.267H291.508V39.8169V39.0929V38.8516H291.267H289.335V37.6451H289.094V38.8516ZM264.962 41.9897V41.2658H262.55V41.9897H264.962ZM262.309 41.9897V41.2658H259.895V41.9897H262.309ZM259.895 41.0244H262.309V40.0587H262.55V41.0244H264.962H265.203V41.2658V41.9897V42.231H264.962H262.55V43.4372H262.309V42.231H259.895H259.653V41.9897V41.2658V41.0244H259.895ZM246.139 28.475V29.4403H243.245V28.475H246.139ZM243.004 28.475V29.4403H240.106V28.475H243.004ZM243.004 28.2337H240.106H239.865V28.475V29.4403V29.6816H240.106H243.004V31.13H243.245V29.6816H246.139L246.381 29.6816V29.4403V28.475V28.2337H246.139H243.245V26.7863H243.004V28.2337ZM273.649 33.7847V30.8886L270.029 30.8886V33.7847H273.649ZM273.89 33.7847V30.8886V30.6473H273.649H270.029H269.788V30.8886V33.7847H267.859V34.026H269.788V37.1629V37.4042H270.029H273.649H273.89V37.1629V34.026H275.098V33.7847H273.89ZM273.649 34.026H270.029V37.1629H273.649V34.026ZM253.137 30.8886V34.0255H251.206V30.8886H253.137ZM253.378 30.8886V34.0255H255.067V34.2668H253.378V37.1629V37.4042H253.137H251.206H250.965V37.1629V34.2668H249.276V34.0255H250.965V30.8886V30.6473H251.207H253.137H253.378V30.8886ZM251.206 34.2668H253.137V37.1629H251.206V34.2668ZM273.649 66.1207V62.7425H270.029V66.1207H273.649ZM275.339 62.7425H273.89V66.1207V66.3621H273.649H270.029H269.788V66.1207V62.7425H268.099V62.5012H269.788V59.6052V59.3639H270.029H273.649H273.89V59.6052V62.5012H275.339V62.7425ZM270.029 59.6052V62.5012H273.649V59.6052H270.029ZM195.945 27.7519V32.095H193.774V27.7519H195.945ZM195.945 27.5106H193.774V22.4423H195.945V27.5106ZM196.187 27.5106V22.4423V22.201H195.945H193.774H193.532V22.4423V27.5106H191.601V27.7519H193.532V32.095V32.3363H193.774H195.945L196.187 32.3363V32.095V27.7519H198.117V27.5106H196.187ZM42.7104 52.3658V49.7109H41.7451V52.3658H42.7104ZM41.7451 49.4696H42.7104V46.5742H41.7451V49.4696ZM42.9517 46.5742V49.4696H44.4002V49.7109H42.9517V52.3658V52.6071H42.7104H41.7451H41.5038V52.3658V49.7109H40.0565V49.4696H41.5038V46.5742V46.3328H41.7451H42.7104H42.9517V46.5742ZM24.3692 49.9529V52.8484H21.956V49.9529H24.3692ZM24.6105 49.9529H25.8164V49.7116H24.6105V46.5742V46.3328H24.3692H21.956H21.7147V46.5742V49.7116H20.2662V49.9529H21.7147V52.8484V53.0897H21.956H24.3692H24.6105V52.8484V49.9529ZM21.956 49.7116V46.5742H24.3692V49.7116H21.956Z" fill="#F5F7F8"/>
<path d="M94.18 67V63.544C93.932 63.664 93.62 63.76 93.244 63.832C92.868 63.904 92.492 63.94 92.116 63.94C90.996 63.94 90.14 63.652 89.548 63.076C88.964 62.492 88.672 61.616 88.672 60.448V58.54H89.908V60.376C89.908 61.24 90.1 61.872 90.484 62.272C90.876 62.664 91.464 62.86 92.248 62.86C92.584 62.86 92.916 62.828 93.244 62.764C93.572 62.7 93.884 62.592 94.18 62.44V58.54H95.416V67H94.18ZM97.3261 67V60.952H98.4301V65.836H98.0941L101.742 60.952H102.75V67H101.658V62.104H102.006L98.3341 67H97.3261ZM105.864 67V61.924H103.728V60.952H109.212V61.924H107.064V67H105.864ZM112.546 67.108C112.01 67.108 111.542 66.984 111.142 66.736C110.742 66.488 110.43 66.128 110.206 65.656C109.99 65.184 109.882 64.624 109.882 63.976C109.882 63.32 109.99 62.76 110.206 62.296C110.43 61.832 110.742 61.476 111.142 61.228C111.542 60.972 112.01 60.844 112.546 60.844C113.074 60.844 113.534 60.976 113.926 61.24C114.318 61.504 114.578 61.864 114.706 62.32H114.574L114.694 60.952H115.87C115.846 61.2 115.822 61.448 115.798 61.696C115.782 61.936 115.774 62.172 115.774 62.404V67H114.562V65.656H114.694C114.566 66.104 114.302 66.46 113.902 66.724C113.51 66.98 113.058 67.108 112.546 67.108ZM112.846 66.16C113.366 66.16 113.782 65.976 114.094 65.608C114.414 65.24 114.574 64.696 114.574 63.976C114.574 63.256 114.414 62.716 114.094 62.356C113.782 61.988 113.366 61.804 112.846 61.804C112.318 61.804 111.894 61.988 111.574 62.356C111.262 62.716 111.106 63.256 111.106 63.976C111.106 64.696 111.262 65.24 111.574 65.608C111.886 65.976 112.31 66.16 112.846 66.16ZM118.931 67V61.924H116.795V60.952H122.279V61.924H120.131V67H118.931ZM126.057 67.108C125.081 67.108 124.313 66.832 123.753 66.28C123.193 65.728 122.913 64.964 122.913 63.988C122.913 63.356 123.033 62.804 123.273 62.332C123.521 61.86 123.861 61.496 124.293 61.24C124.733 60.976 125.241 60.844 125.817 60.844C126.385 60.844 126.861 60.964 127.245 61.204C127.629 61.444 127.921 61.784 128.121 62.224C128.321 62.656 128.421 63.168 128.421 63.76V64.144H123.861V63.448H127.593L127.389 63.604C127.389 63.004 127.253 62.54 126.981 62.212C126.717 61.876 126.333 61.708 125.829 61.708C125.269 61.708 124.837 61.904 124.533 62.296C124.229 62.68 124.077 63.212 124.077 63.892V64.012C124.077 64.724 124.249 65.26 124.593 65.62C124.945 65.98 125.441 66.16 126.081 66.16C126.433 66.16 126.761 66.112 127.065 66.016C127.377 65.912 127.673 65.744 127.953 65.512L128.349 66.34C128.069 66.588 127.729 66.78 127.329 66.916C126.929 67.044 126.505 67.108 126.057 67.108ZM129.652 67.156L129.244 66.196C129.516 66.084 129.744 65.944 129.928 65.776C130.12 65.6 130.268 65.376 130.372 65.104C130.484 64.832 130.564 64.496 130.612 64.096C130.66 63.696 130.684 63.212 130.684 62.644V60.952H135.244V67H134.044V61.9H131.8V62.68C131.8 63.592 131.728 64.348 131.584 64.948C131.44 65.548 131.208 66.024 130.888 66.376C130.576 66.72 130.164 66.98 129.652 67.156ZM137.064 67V60.952H138.264V63.064H139.98C140.772 63.064 141.368 63.232 141.768 63.568C142.168 63.896 142.368 64.376 142.368 65.008C142.368 65.416 142.276 65.772 142.092 66.076C141.908 66.372 141.636 66.6 141.276 66.76C140.924 66.92 140.492 67 139.98 67H137.064ZM138.264 66.172H139.848C140.296 66.172 140.64 66.08 140.88 65.896C141.12 65.704 141.24 65.412 141.24 65.02C141.24 64.628 141.12 64.344 140.88 64.168C140.648 63.984 140.304 63.892 139.848 63.892H138.264V66.172ZM143.732 67V60.952H144.932V63.412H147.992V60.952H149.192V67H147.992V64.36H144.932V67H143.732ZM151.021 67V60.952H152.221V63.064H153.937C154.729 63.064 155.325 63.232 155.725 63.568C156.125 63.896 156.325 64.376 156.325 65.008C156.325 65.416 156.233 65.772 156.049 66.076C155.865 66.372 155.593 66.6 155.233 66.76C154.881 66.92 154.449 67 153.937 67H151.021ZM152.221 66.172H153.805C154.261 66.172 154.605 66.08 154.837 65.896C155.077 65.704 155.197 65.412 155.197 65.02C155.197 64.628 155.077 64.344 154.837 64.168C154.605 63.984 154.261 63.892 153.805 63.892H152.221V66.172ZM157.177 67V60.952H158.377V67H157.177ZM160.185 67V60.952H161.289V65.836H160.953L164.601 60.952H165.609V67H164.517V62.104H164.865L161.193 67H160.185ZM162.897 60.4C162.529 60.4 162.201 60.34 161.913 60.22C161.625 60.1 161.377 59.924 161.169 59.692C160.969 59.452 160.817 59.164 160.713 58.828L161.385 58.588C161.521 58.964 161.713 59.244 161.961 59.428C162.209 59.604 162.521 59.692 162.897 59.692C163.281 59.692 163.593 59.608 163.833 59.44C164.081 59.272 164.293 58.992 164.469 58.6L165.093 58.828C164.901 59.372 164.613 59.772 164.229 60.028C163.853 60.276 163.409 60.4 162.897 60.4ZM172.727 67.108C172.199 67.108 171.703 67.044 171.239 66.916C170.775 66.78 170.395 66.588 170.099 66.34L170.471 65.524C170.767 65.756 171.107 65.932 171.491 66.052C171.875 66.164 172.287 66.22 172.727 66.22C173.279 66.22 173.679 66.14 173.927 65.98C174.183 65.812 174.311 65.576 174.311 65.272C174.311 64.976 174.207 64.752 173.999 64.6C173.791 64.448 173.487 64.372 173.087 64.372H171.599V63.508H172.967C173.327 63.508 173.607 63.432 173.807 63.28C174.007 63.128 174.107 62.916 174.107 62.644C174.107 62.356 173.991 62.132 173.759 61.972C173.527 61.812 173.167 61.732 172.679 61.732C172.263 61.732 171.883 61.784 171.539 61.888C171.195 61.992 170.867 62.148 170.555 62.356L170.195 61.576C170.523 61.328 170.911 61.144 171.359 61.024C171.807 60.904 172.291 60.844 172.811 60.844C173.595 60.844 174.191 60.992 174.599 61.288C175.007 61.576 175.211 61.992 175.211 62.536C175.211 62.912 175.083 63.232 174.827 63.496C174.579 63.76 174.243 63.92 173.819 63.976V63.82C174.307 63.844 174.695 63.992 174.983 64.264C175.279 64.528 175.427 64.88 175.427 65.32C175.427 65.864 175.195 66.3 174.731 66.628C174.275 66.948 173.607 67.108 172.727 67.108ZM179.202 67.108C178.666 67.108 178.198 66.984 177.798 66.736C177.398 66.488 177.086 66.128 176.862 65.656C176.646 65.184 176.538 64.624 176.538 63.976C176.538 63.32 176.646 62.76 176.862 62.296C177.086 61.832 177.398 61.476 177.798 61.228C178.198 60.972 178.666 60.844 179.202 60.844C179.73 60.844 180.19 60.976 180.582 61.24C180.974 61.504 181.234 61.864 181.362 62.32H181.23L181.35 60.952H182.526C182.502 61.2 182.478 61.448 182.454 61.696C182.438 61.936 182.43 62.172 182.43 62.404V67H181.218V65.656H181.35C181.222 66.104 180.958 66.46 180.558 66.724C180.166 66.98 179.714 67.108 179.202 67.108ZM179.502 66.16C180.022 66.16 180.438 65.976 180.75 65.608C181.07 65.24 181.23 64.696 181.23 63.976C181.23 63.256 181.07 62.716 180.75 62.356C180.438 61.988 180.022 61.804 179.502 61.804C178.974 61.804 178.55 61.988 178.23 62.356C177.918 62.716 177.762 63.256 177.762 63.976C177.762 64.696 177.918 65.24 178.23 65.608C178.542 65.976 178.966 66.16 179.502 66.16ZM184.039 67.156L183.631 66.196C183.903 66.084 184.131 65.944 184.315 65.776C184.507 65.6 184.655 65.376 184.759 65.104C184.871 64.832 184.951 64.496 184.999 64.096C185.047 63.696 185.071 63.212 185.071 62.644V60.952H189.631V67H188.431V61.9H186.187V62.68C186.187 63.592 186.115 64.348 185.971 64.948C185.827 65.548 185.595 66.024 185.275 66.376C184.963 66.72 184.551 66.98 184.039 67.156Z" fill="#379777"/>
<path d="M255.5 30C255.5 30.2761 255.724 30.5 256 30.5C256.276 30.5 256.5 30.2761 256.5 30H255.5ZM256 10.5V10H255.5V10.5H256ZM266 10.5H266.5V10H266V10.5ZM266 33.5V34H266.5V33.5H266ZM204.5 33.5V33H204V33.5H204.5ZM204.146 43.3536C204.342 43.5488 204.658 43.5488 204.854 43.3536L208.036 40.1716C208.231 39.9763 208.231 39.6597 208.036 39.4645C207.84 39.2692 207.524 39.2692 207.328 39.4645L204.5 42.2929L201.672 39.4645C201.476 39.2692 201.16 39.2692 200.964 39.4645C200.769 39.6597 200.769 39.9763 200.964 40.1716L204.146 43.3536ZM256.5 30V10.5H255.5V30H256.5ZM256 11H266V10H256V11ZM265.5 10.5V33.5H266.5V10.5H265.5ZM266 33H204.5V34H266V33ZM204 33.5V43H205V33.5H204Z" fill="#F4CE14"/>
</svg>
