<svg width="23" height="23" viewBox="0 0 23 23" fill="none" xmlns="http://www.w3.org/2000/svg">
<path d="M2 11.5C2 8.98044 3.00089 6.56408 4.78249 4.78249C6.56408 3.00089 8.98044 2 11.5 2C14.0196 2 16.4359 3.00089 18.2175 4.78249C19.9991 6.56408 21 8.98044 21 11.5V17.5444C21 18.5514 21 19.0525 20.8504 19.4551C20.7314 19.7741 20.5452 20.0637 20.3045 20.3045C20.0637 20.5452 19.7741 20.7314 19.4551 20.8504C19.0525 21 18.5502 21 17.5444 21H11.5C8.98044 21 6.56408 19.9991 4.78249 18.2175C3.00089 16.4359 2 14.0196 2 11.5Z" stroke="#F5F7F8" stroke-width="2.5"/>
<path d="M7.9375 10.3125H15.0625M11.5 15.0625H15.0625" stroke="#F5F7F8" stroke-width="2.5" stroke-linecap="round" stroke-linejoin="round"/>
</svg>
