<svg width="23" height="21" viewBox="0 0 23 21" fill="none" xmlns="http://www.w3.org/2000/svg">
<path d="M20.958 17.3654C21.2655 17.3656 21.5612 17.484 21.7838 17.6963C22.0064 17.9085 22.1388 18.1983 22.1536 18.5055C22.1684 18.8127 22.0644 19.1138 21.8632 19.3464C21.6649 19.5758 21.387 19.7213 21.0858 19.7537L20.9437 19.7607H1.79672C1.48916 19.7605 1.19345 19.642 0.970856 19.4298L0.559621 19.8611L0.970854 19.4298C0.748264 19.2175 0.615861 18.9278 0.601081 18.6206C0.5863 18.3134 0.690276 18.0123 0.891462 17.7796C1.08983 17.5503 1.36771 17.4048 1.66889 17.3723L1.81095 17.3654H20.958ZM20.9583 8.98211C21.2759 8.98211 21.5805 9.10829 21.8051 9.33289C22.0297 9.55748 22.1559 9.8621 22.1559 10.1797C22.1559 10.4974 22.0297 10.802 21.8051 11.0266C21.5805 11.2512 21.2759 11.3773 20.9583 11.3773H1.79642C1.4788 11.3773 1.17418 11.2512 0.949581 11.0266C0.724985 10.802 0.598808 10.4974 0.598808 10.1797C0.598808 9.8621 0.724984 9.55748 0.949581 9.33289C1.17418 9.10829 1.4788 8.98211 1.79642 8.98211H20.9583ZM20.9583 0.598808C21.2759 0.598808 21.5805 0.724984 21.8051 0.949581C22.0297 1.17418 22.1559 1.4788 22.1559 1.79642C22.1559 2.11405 22.0297 2.41867 21.8051 2.64326C21.5805 2.86786 21.2759 2.99404 20.9583 2.99404H1.79642C1.4788 2.99404 1.17418 2.86786 0.949581 2.64327C0.724985 2.41867 0.598808 2.11405 0.598808 1.79642C0.598808 1.4788 0.724985 1.17418 0.949581 0.949581C1.17418 0.724985 1.4788 0.598808 1.79642 0.598808H20.9583Z" fill="#F5F7F8" stroke="#F5F7F8" stroke-width="1.19762"/>
</svg>
