<svg width="22" height="22" viewBox="0 0 22 22" fill="none" xmlns="http://www.w3.org/2000/svg">
<path fill-rule="evenodd" clip-rule="evenodd" d="M11 0.000291967C9.12949 0.000291967 7.58335 0.165034 6.3933 0.365589L6.25619 0.389124C5.2227 0.562052 4.36316 0.706329 3.69088 1.53311C3.26112 2.06417 3.12093 2.63821 3.08921 3.27774L2.58577 3.44555C2.112 3.60313 1.69553 3.74229 1.36707 3.89578C1.01098 4.06154 0.684558 4.27437 0.434884 4.62125C0.185209 4.96813 0.0859535 5.34469 0.0409302 5.73454C-3.65945e-08 6.09575 0 6.53267 0 7.03304V7.18141C0 7.59275 -2.74459e-08 7.956 0.0306976 8.2599C0.0634418 8.58836 0.136093 8.90864 0.317209 9.21766C0.500372 9.5277 0.743907 9.74667 1.01609 9.93495C1.26679 10.1089 1.584 10.2859 1.94419 10.4855L4.64558 11.9866C5.19814 13.0722 5.95637 14.0402 6.99907 14.7391C7.9067 15.3489 8.99647 15.7316 10.2868 15.8329C10.2521 15.9234 10.2337 16.0194 10.2326 16.1164V17.907H8.7693C8.35531 17.907 7.95411 18.0505 7.63397 18.313C7.31384 18.5755 7.09454 18.9408 7.0134 19.3467L6.7893 20.4651H4.86047C4.65693 20.4651 4.46173 20.546 4.3178 20.6899C4.17388 20.8338 4.09302 21.029 4.09302 21.2326C4.09302 21.4361 4.17388 21.6313 4.3178 21.7752C4.46173 21.9191 4.65693 22 4.86047 22H17.1395C17.3431 22 17.5383 21.9191 17.6822 21.7752C17.8261 21.6313 17.907 21.4361 17.907 21.2326C17.907 21.029 17.8261 20.8338 17.6822 20.6899C17.5383 20.546 17.3431 20.4651 17.1395 20.4651H15.2107L14.9866 19.3467C14.9055 18.9408 14.6862 18.5755 14.366 18.313C14.0459 18.0505 13.6447 17.907 13.2307 17.907H11.7674V16.1164C11.7663 16.0194 11.7479 15.9234 11.7132 15.8329C13.0035 15.7306 14.0933 15.3489 15.0009 14.7401C16.0447 14.0402 16.8019 13.0722 17.3544 11.9866L20.0558 10.4855C20.416 10.2859 20.7332 10.1089 20.9839 9.93495C21.2551 9.74667 21.4996 9.5277 21.6818 9.21868C21.8639 8.90864 21.9376 8.58836 21.9693 8.2599C22 7.956 22 7.59275 22 7.18141V7.03304C22 6.53369 22 6.09575 21.9591 5.73454C21.914 5.34469 21.8158 4.96711 21.5651 4.62125C21.3154 4.27437 20.989 4.06154 20.634 3.89475C20.3034 3.74127 19.888 3.60313 19.4142 3.44555L18.9108 3.27774C18.8801 2.63719 18.7399 2.06417 18.3091 1.53311C17.6379 0.705306 16.7783 0.561029 15.7448 0.389124L15.6067 0.365589C14.084 0.115391 12.5431 -0.00680209 11 0.000291967ZM13.6451 20.4651L13.4814 19.6476C13.4698 19.5896 13.4385 19.5374 13.3928 19.4999C13.3471 19.4624 13.2898 19.4419 13.2307 19.4419H8.7693C8.71019 19.4419 8.65291 19.4624 8.6072 19.4999C8.5615 19.5374 8.53019 19.5896 8.5186 19.6476L8.35488 20.4651H13.6451ZM3.10865 4.88934L3.12298 4.88423C3.19665 6.43956 3.37163 8.1586 3.80958 9.76509L2.71879 9.16036C2.32074 8.93831 2.07107 8.79915 1.89098 8.67432C1.72521 8.55869 1.67098 8.49013 1.6413 8.43897C1.6106 8.38781 1.57786 8.308 1.5574 8.10744C1.53624 7.78797 1.52873 7.46775 1.53488 7.14764V7.07294C1.53488 6.52141 1.53591 6.17249 1.56558 5.90849C1.59423 5.66496 1.63926 5.57389 1.68019 5.51864C1.72009 5.46236 1.79172 5.39073 2.01377 5.28738C2.25526 5.17483 2.58679 5.06432 3.10865 4.88934ZM18.877 4.8832C18.8044 6.43853 18.6284 8.15758 18.1914 9.76407L19.2812 9.15933C19.6793 8.93729 19.9289 8.79813 20.109 8.67329C20.2748 8.55767 20.329 8.48911 20.3587 8.43795C20.3894 8.38679 20.4221 8.30697 20.4426 8.10642C20.4641 7.88744 20.4651 7.60196 20.4651 7.14662V7.07192C20.4651 6.52039 20.4641 6.17147 20.4344 5.90747C20.4058 5.66394 20.3607 5.57287 20.3198 5.51761C20.2799 5.46134 20.2083 5.38971 19.9862 5.28636C19.7447 5.1738 19.4132 5.06227 18.8913 4.8873L18.877 4.8832ZM6.64912 1.87896C8.08732 1.64353 9.54267 1.52853 11 1.53516C12.7805 1.53516 14.2407 1.69171 15.3509 1.87896C16.586 2.08771 16.8448 2.16547 17.118 2.5011C17.3861 2.83058 17.4117 3.14369 17.3565 4.53019C17.2644 6.84067 16.9594 9.33533 16.016 11.2324C15.5494 12.1677 14.9395 12.9331 14.1465 13.4651C13.3576 13.9942 12.3394 14.3257 11 14.3257C9.66056 14.3257 8.64344 13.9942 7.85451 13.4651C7.06046 12.9331 6.4506 12.1677 5.98502 11.2314C5.04056 9.33533 4.73665 6.84169 4.64456 4.52916C4.5893 3.14369 4.61386 2.83058 4.88298 2.5011C5.15516 2.16547 5.41405 2.08771 6.64912 1.87896Z" fill="#F5F7F8"/>
</svg>
