<svg width="22" height="22" viewBox="0 0 22 22" fill="none" xmlns="http://www.w3.org/2000/svg">
<path d="M21.3093 7.17407C22.1848 9.5256 22.2293 12.1059 21.4354 14.4862C20.6416 16.8666 19.0571 18.9036 16.9454 20.2589C14.8337 21.6142 12.3218 22.2061 9.82711 21.9363C7.33243 21.6665 5.00518 20.5512 3.23204 18.7757C1.24027 16.7905 0.0851961 14.1174 0.00452754 11.3064C-0.076141 8.49536 0.92373 5.76036 2.79838 3.66419C4.67303 1.56802 7.27985 0.270146 10.0824 0.0376505C12.8849 -0.194845 15.67 0.655727 17.8644 2.41433L19.91 0.367756C20.0236 0.254158 20.1584 0.164047 20.3068 0.102568C20.4553 0.0410888 20.6143 0.00944605 20.775 0.00944605C20.9357 0.00944605 21.0947 0.0410888 21.2432 0.102568C21.3916 0.164047 21.5264 0.254158 21.64 0.367756C21.7536 0.481354 21.8438 0.616215 21.9052 0.764638C21.9667 0.913061 21.9984 1.07214 21.9984 1.23279C21.9984 1.39344 21.9667 1.55252 21.9052 1.70095C21.8438 1.84937 21.7536 1.98423 21.64 2.09783L11.8702 11.8677C11.7566 11.9813 11.6217 12.0714 11.4733 12.1328C11.3249 12.1943 11.1658 12.226 11.0052 12.226C10.8445 12.226 10.6854 12.1943 10.537 12.1328C10.3886 12.0714 10.2537 11.9813 10.1401 11.8677C10.0265 11.7541 9.93642 11.6192 9.87494 11.4708C9.81346 11.3224 9.78182 11.1633 9.78182 11.0026C9.78182 10.842 9.81346 10.6829 9.87494 10.5345C9.93642 10.386 10.0265 10.2512 10.1401 10.1376L12.5826 7.69513C11.8942 7.36624 11.1203 7.26045 10.3689 7.39253C9.61751 7.52462 8.92609 7.88798 8.39113 8.43191C7.85616 8.97584 7.50435 9.67321 7.38478 10.4267C7.26521 11.1802 7.38385 11.9522 7.72415 12.635C8.06444 13.3179 8.60941 13.8774 9.283 14.2356C9.9566 14.5938 10.7252 14.7328 11.4816 14.6332C12.238 14.5336 12.9444 14.2003 13.5023 13.6799C14.0602 13.1595 14.4417 12.4779 14.5935 11.7303C14.6575 11.4127 14.845 11.1336 15.1148 10.9543C15.3846 10.775 15.7145 10.7102 16.0321 10.7741C16.3496 10.8381 16.6287 11.0256 16.808 11.2954C16.9873 11.5652 17.0521 11.8951 16.9882 12.2127C16.728 13.4941 16.0634 14.6582 15.0921 15.5336C14.1208 16.409 12.8942 16.9495 11.5927 17.0756C10.2912 17.2016 8.98361 16.9065 7.86239 16.2338C6.74116 15.561 5.86551 14.5461 5.36431 13.3384C4.86311 12.1307 4.76284 10.794 5.07824 9.52499C5.39364 8.25602 6.10807 7.12181 7.11637 6.28929C8.12468 5.45677 9.3736 4.96991 10.6793 4.90037C11.9851 4.83082 13.2786 5.18227 14.3697 5.90297L16.1231 4.1556C14.476 2.92547 12.4407 2.33011 10.3903 2.47862C8.3399 2.62713 6.41167 3.50956 4.959 4.96421C3.50632 6.41885 2.6265 8.34828 2.48077 10.3989C2.33504 12.4495 2.93317 14.484 4.16553 16.1294C5.3979 17.7749 7.18196 18.9211 9.19077 19.3581C11.1996 19.7951 13.2986 19.4935 15.1031 18.5087C16.9077 17.5239 18.2969 15.9217 19.0162 13.9959C19.7354 12.07 19.7366 9.94947 19.0195 8.02282C18.9624 7.87219 18.9357 7.71176 18.9409 7.55076C18.946 7.38976 18.983 7.23137 19.0497 7.08472C19.1163 6.93808 19.2113 6.80606 19.3292 6.69629C19.4471 6.58651 19.5855 6.50114 19.7366 6.4451C19.8876 6.38905 20.0482 6.36344 20.2092 6.36973C20.3701 6.37602 20.5282 6.41409 20.6744 6.48176C20.8206 6.54942 20.952 6.64534 21.0609 6.76398C21.1699 6.88262 21.2543 7.02165 21.3093 7.17305V7.17407Z" fill="#F5F7F8"/>
</svg>
