<svg width="23" height="22" viewBox="0 0 23 22" fill="none" xmlns="http://www.w3.org/2000/svg">
<path d="M10.2292 17L6.18158 13.3477C6.05787 13.2173 5.99322 13.0496 6.00056 12.8781C6.0079 12.7067 6.08669 12.544 6.22118 12.4226C6.35567 12.3013 6.53595 12.2302 6.726 12.2236C6.91606 12.2169 7.10188 12.2753 7.24634 12.3869L10.2292 15.0512L16.7537 9.16385C16.8981 9.05222 17.0839 8.99388 17.274 9.00051C17.4641 9.00713 17.6443 9.07822 17.7788 9.19958C17.9133 9.32093 17.9921 9.48361 17.9994 9.6551C18.0068 9.8266 17.9421 9.99428 17.8184 10.1246L10.2292 17Z" fill="#F5F7F8"/>
<path d="M21.742 3H20.1369C19.7333 3 19.4061 3.32718 19.4061 3.73077C19.4061 4.13436 19.7333 4.46154 20.1369 4.46154H21.5623V20.5385H1.43766V4.46154H2.86311C3.2667 4.46154 3.59388 4.13436 3.59388 3.73077C3.59388 3.32718 3.2667 3 2.86311 3H1.25798C1.08996 3.00285 0.924147 3.03933 0.770002 3.10736C0.615856 3.17538 0.4764 3.27361 0.359598 3.39644C0.242797 3.51926 0.150938 3.66428 0.0892693 3.82321C0.0276004 3.98214 -0.00267081 4.15187 0.000184753 4.32269V20.6773C-0.00267081 20.8481 0.0276004 21.0179 0.0892693 21.1768C0.150938 21.3357 0.242797 21.4807 0.359598 21.6036C0.4764 21.7264 0.615856 21.8246 0.770002 21.8926C0.924147 21.9607 1.08996 21.9971 1.25798 22H21.742C21.91 21.9971 22.0759 21.9607 22.23 21.8926C22.3841 21.8246 22.5236 21.7264 22.6404 21.6036C22.7572 21.4807 22.8491 21.3357 22.9107 21.1768C22.9724 21.0179 23.0027 20.8481 22.9998 20.6773V4.32269C23.0027 4.15187 22.9724 3.98214 22.9107 3.82321C22.8491 3.66428 22.7572 3.51926 22.6404 3.39644C22.5236 3.27361 22.3841 3.17538 22.23 3.10736C22.0759 3.03933 21.91 3.00285 21.742 3Z" fill="#F5F7F8"/>
<path d="M6 6C6.26522 6 6.51957 5.92098 6.70711 5.78033C6.89464 5.63968 7 5.44891 7 5.25V0.75C7 0.551088 6.89464 0.360322 6.70711 0.21967C6.51957 0.0790176 6.26522 0 6 0C5.73478 0 5.48043 0.0790176 5.29289 0.21967C5.10536 0.360322 5 0.551088 5 0.75V5.25C5 5.44891 5.10536 5.63968 5.29289 5.78033C5.48043 5.92098 5.73478 6 6 6Z" fill="#F5F7F8"/>
<path d="M17 6C17.2652 6 17.5196 5.92098 17.7071 5.78033C17.8946 5.63968 18 5.44891 18 5.25V0.75C18 0.551088 17.8946 0.360322 17.7071 0.21967C17.5196 0.0790176 17.2652 0 17 0C16.7348 0 16.4804 0.0790176 16.2929 0.21967C16.1054 0.360322 16 0.551088 16 0.75V5.25C16 5.44891 16.1054 5.63968 16.2929 5.78033C16.4804 5.92098 16.7348 6 17 6Z" fill="#F5F7F8"/>
<path d="M8 3H15V4H8V3Z" fill="#F5F7F8"/>
</svg>
