<svg width="122" height="109" viewBox="0 0 122 109" fill="none" xmlns="http://www.w3.org/2000/svg">
<rect x="0.5" y="20.0454" width="63.4254" height="88" rx="2.8209" fill="#D9D9D9" stroke="black"/>
<path d="M43.7253 55.9579C45.937 55.9579 47.7299 54.165 47.7299 51.9533C47.7299 49.7416 45.937 47.9487 43.7253 47.9487C41.5136 47.9487 39.7207 49.7416 39.7207 51.9533C39.7207 54.165 41.5136 55.9579 43.7253 55.9579Z" fill="#676767"/>
<path d="M31.8159 65.5507L30.4783 62.4271C29.8877 61.0515 29.5933 60.3628 29.2209 59.9142C28.6685 59.2494 27.9158 58.7811 27.0753 58.5793C26.2348 58.3776 25.3515 58.4532 24.5576 58.795C24.0249 59.0252 23.4483 59.5058 22.297 60.4649C20.7672 61.7383 20.0023 62.3771 19.3596 63.0799C17.4397 65.1809 16.205 67.8166 15.8196 70.6365C15.6914 71.5816 15.6914 72.5988 15.6914 74.6351C15.6914 75.8765 15.6914 76.4972 15.8216 76.9958C16.0016 77.6832 16.3613 78.3103 16.8638 78.8128C17.3663 79.3153 17.9934 79.675 18.6808 79.8551C19.1814 79.9852 19.7881 79.9852 21.0035 79.9852H44.2541C45.6237 79.9852 46.3085 79.9852 46.8651 79.819C47.5041 79.6293 48.0856 79.2831 48.5569 78.8118C49.0282 78.3404 49.3745 77.7589 49.5642 77.1199C49.7304 76.5633 49.7304 75.8785 49.7304 74.5089C49.7304 73.3116 49.7304 72.7129 49.6483 72.1402C49.4567 70.8202 48.9384 69.569 48.1405 68.5001C47.7942 68.0375 47.3697 67.6131 46.5227 66.7661L46.1022 66.3456C44.6566 64.8999 43.9357 64.1791 43.1168 63.8748C42.2165 63.54 41.2259 63.54 40.3256 63.8748C39.5067 64.1791 38.7838 64.8999 37.3422 66.3456L37.1139 66.5719C35.9426 67.7432 35.3559 68.3299 34.7332 68.438C34.2496 68.5232 33.7514 68.4277 33.3336 68.1697C32.797 67.8373 32.4706 67.0744 31.8159 65.5507Z" stroke="#676767" stroke-width="3.3209"/>
<rect x="58.0625" y="18.5278" width="63.4254" height="88" rx="2.8209" fill="#D9D9D9" stroke="black"/>
<path d="M101.288 54.4403C103.499 54.4403 105.292 52.6474 105.292 50.4357C105.292 48.2241 103.499 46.4312 101.288 46.4312C99.0761 46.4312 97.2832 48.2241 97.2832 50.4357C97.2832 52.6474 99.0761 54.4403 101.288 54.4403Z" fill="#676767"/>
<path d="M89.3784 64.0331L88.0408 60.9095C87.4502 59.534 87.1558 58.8452 86.7834 58.3967C86.231 57.7318 85.4783 57.2635 84.6378 57.0618C83.7973 56.86 82.914 56.9357 82.1201 57.2774C81.5874 57.5076 81.0108 57.9882 79.8595 58.9473C78.3297 60.2208 77.5648 60.8595 76.9221 61.5623C75.0022 63.6633 73.7675 66.2991 73.3821 69.1189C73.2539 70.064 73.2539 71.0812 73.2539 73.1175C73.2539 74.3589 73.2539 74.9796 73.3841 75.4782C73.5641 76.1656 73.9238 76.7928 74.4263 77.2952C74.9288 77.7977 75.5559 78.1574 76.2433 78.3375C76.7439 78.4676 77.3506 78.4676 78.566 78.4676H101.817C103.186 78.4676 103.871 78.4676 104.428 78.3014C105.067 78.1117 105.648 77.7655 106.119 77.2942C106.591 76.8229 106.937 76.2413 107.127 75.6024C107.293 75.0457 107.293 74.3609 107.293 72.9914C107.293 71.794 107.293 71.1953 107.211 70.6227C107.019 69.3027 106.501 68.0514 105.703 66.9825C105.357 66.52 104.932 66.0955 104.085 65.2485L103.665 64.828C102.219 63.3824 101.498 62.6615 100.679 62.3572C99.779 62.0225 98.7884 62.0225 97.8881 62.3572C97.0692 62.6615 96.3463 63.3824 94.9047 64.828L94.6764 65.0543C93.5051 66.2256 92.9184 66.8123 92.2957 66.9204C91.8121 67.0057 91.3139 66.9102 90.8961 66.6521C90.3595 66.3197 90.0331 65.5569 89.3784 64.0331Z" stroke="#676767" stroke-width="3.3209"/>
<rect x="28.5625" y="0.5" width="63.4254" height="88" rx="2.8209" fill="#D9D9D9" stroke="black"/>
<path d="M71.7878 36.4125C73.9995 36.4125 75.7924 34.6196 75.7924 32.4079C75.7924 30.1962 73.9995 28.4033 71.7878 28.4033C69.5761 28.4033 67.7832 30.1962 67.7832 32.4079C67.7832 34.6196 69.5761 36.4125 71.7878 36.4125Z" fill="#676767"/>
<path d="M59.8784 46.0053L58.5408 42.8817C57.9502 41.5061 57.6558 40.8173 57.2834 40.3688C56.731 39.704 55.9783 39.2357 55.1378 39.0339C54.2973 38.8322 53.414 38.9078 52.6201 39.2496C52.0874 39.4798 51.5108 39.9604 50.3595 40.9195C48.8297 42.1929 48.0648 42.8317 47.4221 43.5345C45.5022 45.6355 44.2675 48.2712 43.8821 51.0911C43.7539 52.0362 43.7539 53.0533 43.7539 55.0897C43.7539 56.3311 43.7539 56.9518 43.8841 57.4504C44.0641 58.1378 44.4238 58.7649 44.9263 59.2674C45.4288 59.7699 46.0559 60.1296 46.7433 60.3097C47.2439 60.4398 47.8506 60.4398 49.066 60.4398H72.3166C73.6862 60.4398 74.371 60.4398 74.9276 60.2736C75.5666 60.0839 76.1481 59.7377 76.6194 59.2663C77.0907 58.795 77.437 58.2135 77.6267 57.5745C77.7929 57.0179 77.7929 56.3331 77.7929 54.9635C77.7929 53.7662 77.7929 53.1675 77.7108 52.5948C77.5192 51.2748 77.0009 50.0236 76.203 48.9547C75.8567 48.4921 75.4322 48.0676 74.5852 47.2207L74.1647 46.8002C72.7191 45.3545 71.9982 44.6337 71.1793 44.3294C70.279 43.9946 69.2884 43.9946 68.3881 44.3294C67.5692 44.6337 66.8463 45.3545 65.4047 46.8002L65.1764 47.0265C64.0051 48.1978 63.4184 48.7845 62.7957 48.8926C62.3121 48.9778 61.8139 48.8823 61.3961 48.6243C60.8595 48.2919 60.5331 47.529 59.8784 46.0053Z" stroke="#676767" stroke-width="3.3209"/>
</svg>
