<svg width="24" height="24" viewBox="0 0 24 24" fill="none" xmlns="http://www.w3.org/2000/svg">
<path d="M20.5714 12H3.42857M20.5714 12C20.9503 12 21.3137 11.8495 21.5816 11.5816C21.8495 11.3137 22 10.9503 22 10.5714V9.14286C22 8.76398 21.8495 8.40061 21.5816 8.1327C21.3137 7.8648 20.9503 7.71429 20.5714 7.71429H3.42857C3.04969 7.71429 2.68633 7.8648 2.41842 8.1327C2.15051 8.40061 2 8.76398 2 9.14286V10.5714C2 10.9503 2.15051 11.3137 2.41842 11.5816C2.68633 11.8495 3.04969 12 3.42857 12M20.5714 12V19.1429C20.5714 19.9006 20.2704 20.6273 19.7346 21.1632C19.1988 21.699 18.472 22 17.7143 22H6.28571C5.52795 22 4.80123 21.699 4.26541 21.1632C3.72959 20.6273 3.42857 19.9006 3.42857 19.1429V12M12 7.71429V6.28571M12 7.71429H7.30571C6.98416 7.71429 6.66576 7.65095 6.36869 7.5279C6.07161 7.40485 5.80168 7.22449 5.57431 6.99712C5.11512 6.53792 4.85714 5.91512 4.85714 5.26571V4.85714C4.85714 4.09938 5.15816 3.37266 5.69398 2.83684C6.2298 2.30102 6.95652 2 7.71429 2C8.85093 2 9.94102 2.45153 10.7447 3.25526C11.5485 4.05898 12 5.14907 12 6.28571M12 7.71429H16.6943C18.0471 7.71429 19.1429 6.61714 19.1429 5.26571V4.85714C19.1429 4.09938 18.8418 3.37266 18.306 2.83684C17.7702 2.30102 17.0435 2 16.2857 2C15.1491 2 14.059 2.45153 13.2553 3.25526C12.4515 4.05898 12 5.14907 12 6.28571M12 7.71429V22" stroke="#F5F7F8" stroke-width="2.66667"/>
</svg>
