<svg width="36" height="36" viewBox="0 0 36 36" fill="none" xmlns="http://www.w3.org/2000/svg">
<path d="M18 21.75L21.75 18M21.75 18L18 14.25M21.75 18H8M8 12.06V12C8 10.6 8 9.9 8.2725 9.365C8.5125 8.89375 8.89375 8.5125 9.365 8.2725C9.9 8 10.6 8 12 8H24C25.4 8 26.1 8 26.6337 8.2725C27.105 8.5125 27.4875 8.89375 27.7275 9.365C28 9.89875 28 10.5987 28 11.9963V24.005C28 25.4025 28 26.1013 27.7275 26.635C27.4875 27.1056 27.1046 27.488 26.6337 27.7275C26.1 28 25.4012 28 24.0037 28H11.9963C10.5987 28 9.89875 28 9.365 27.7275C8.89462 27.4878 8.51218 27.1054 8.2725 26.635C8 26.1 8 25.4 8 24V23.9375" stroke="#F5F7F8" stroke-width="2.5" stroke-linecap="round" stroke-linejoin="round"/>
</svg>
