<svg width="30" height="30" viewBox="0 0 30 30" fill="none" xmlns="http://www.w3.org/2000/svg">
<g filter="url(#filter0_dd_419_6071)">
<path fill-rule="evenodd" clip-rule="evenodd" d="M15 0C15.3647 0 15.7144 0.115915 15.9723 0.322244C16.2302 0.528574 16.375 0.808417 16.375 1.10021V2.20042H21.3059C22.0352 2.20055 22.7346 2.43246 23.2502 2.84515L25.5974 4.72321C25.8552 4.92953 26 5.20932 26 5.50105C26 5.79279 25.8552 6.07258 25.5974 6.2789L23.2502 8.15696C22.7346 8.56965 22.0352 8.80156 21.3059 8.80169H16.375V9.9019H17.7501C18.4794 9.9019 19.1789 10.1337 19.6947 10.5464C20.2104 10.959 20.5001 11.5187 20.5001 12.1023V14.3027C20.5001 14.8863 20.2104 15.446 19.6947 15.8587C19.1789 16.2713 18.4794 16.5032 17.7501 16.5032H16.375V19.8038H19.1251C19.4898 19.8038 19.8395 19.9197 20.0974 20.126C20.3553 20.3324 20.5001 20.6122 20.5001 20.904C20.5001 21.1958 20.3553 21.4756 20.0974 21.682C19.8395 21.8883 19.4898 22.0042 19.1251 22.0042H10.8749C10.5102 22.0042 10.1605 21.8883 9.90259 21.682C9.64472 21.4756 9.49985 21.1958 9.49985 20.904C9.49985 20.6122 9.64472 20.3324 9.90259 20.126C10.1605 19.9197 10.5102 19.8038 10.8749 19.8038H13.625V16.5032H8.69408C7.96478 16.503 7.2654 16.2711 6.74978 15.8584L4.40259 13.9804C4.14481 13.7741 4 13.4943 4 13.2025C4 12.9108 4.14481 12.631 4.40259 12.4247L6.74978 10.5466C7.2654 10.1339 7.96478 9.90202 8.69408 9.9019H13.625V8.80169H12.2499C11.5206 8.80169 10.8211 8.56986 10.3053 8.1572C9.78959 7.74454 9.49985 7.18485 9.49985 6.60127V4.40084C9.49985 3.81726 9.78959 3.25757 10.3053 2.84491C10.8211 2.43225 11.5206 2.20042 12.2499 2.20042H13.625V1.10021C13.625 0.808417 13.7698 0.528574 14.0277 0.322244C14.2856 0.115915 14.6353 0 15 0ZM17.7501 12.1023H8.69408L7.31904 13.2025L8.69408 14.3027H17.7501V12.1023ZM21.3059 4.40084H12.2499V6.60127H21.3059L22.681 5.50105L21.3059 4.40084Z" fill="#F5F7F8"/>
</g>
<defs>
<filter id="filter0_dd_419_6071" x="0" y="0" width="30" height="30.0044" filterUnits="userSpaceOnUse" color-interpolation-filters="sRGB">
<feFlood flood-opacity="0" result="BackgroundImageFix"/>
<feColorMatrix in="SourceAlpha" type="matrix" values="0 0 0 0 0 0 0 0 0 0 0 0 0 0 0 0 0 0 127 0" result="hardAlpha"/>
<feOffset dy="4"/>
<feGaussianBlur stdDeviation="2"/>
<feComposite in2="hardAlpha" operator="out"/>
<feColorMatrix type="matrix" values="0 0 0 0 0 0 0 0 0 0 0 0 0 0 0 0 0 0 0.25 0"/>
<feBlend mode="normal" in2="BackgroundImageFix" result="effect1_dropShadow_419_6071"/>
<feColorMatrix in="SourceAlpha" type="matrix" values="0 0 0 0 0 0 0 0 0 0 0 0 0 0 0 0 0 0 127 0" result="hardAlpha"/>
<feOffset dy="4"/>
<feGaussianBlur stdDeviation="2"/>
<feComposite in2="hardAlpha" operator="out"/>
<feColorMatrix type="matrix" values="0 0 0 0 0 0 0 0 0 0 0 0 0 0 0 0 0 0 0.25 0"/>
<feBlend mode="normal" in2="effect1_dropShadow_419_6071" result="effect2_dropShadow_419_6071"/>
<feBlend mode="normal" in="SourceGraphic" in2="effect2_dropShadow_419_6071" result="shape"/>
</filter>
</defs>
</svg>
