<svg width="23" height="23" viewBox="0 0 23 23" fill="none" xmlns="http://www.w3.org/2000/svg">
<path fill-rule="evenodd" clip-rule="evenodd" d="M9 2C6.79086 2 5 3.79086 5 6C5 8.20914 6.79086 10 9 10C11.2091 10 13 8.20914 13 6C13 3.79086 11.2091 2 9 2ZM13.3843 10.0961C12.2893 11.2677 10.7302 12 9 12C5.68629 12 3 9.31371 3 6C3 2.68629 5.68629 0 9 0C12.0953 0 14.6431 2.34378 14.9656 5.35341C15.4289 5.12705 15.9496 5 16.5 5C18.433 5 20 6.567 20 8.5C20 10.433 18.433 12 16.5 12C15.142 12 13.9646 11.2265 13.3843 10.0961ZM12.65 13.5293C13.87 13.5293 15.04 14.0995 15.9027 15.1144C16.7654 16.1293 17.25 17.5058 17.25 18.9411V21.6469C17.25 22.0058 17.1288 22.3499 16.9132 22.6036C16.6975 22.8573 16.405 22.9999 16.1 22.9999C15.795 22.9999 15.5025 22.8573 15.2868 22.6036C15.0712 22.3499 14.95 22.0058 14.95 21.6469V18.9411C14.95 18.2234 14.7077 17.5352 14.2763 17.0277C13.845 16.5203 13.26 16.2352 12.65 16.2352H4.6C3.99 16.2352 3.40499 16.5203 2.97365 17.0277C2.54232 17.5352 2.3 18.2234 2.3 18.9411V21.6469C2.3 22.0058 2.17884 22.3499 1.96317 22.6036C1.74751 22.8573 1.455 22.9999 1.15 22.9999C0.845001 22.9999 0.552494 22.8573 0.336827 22.6036C0.12116 22.3499 0 22.0058 0 21.6469V18.9411C0 17.5058 0.484642 16.1293 1.34731 15.1144C2.20998 14.0995 3.38 13.5293 4.6 13.5293H12.65ZM19.55 13.5293C20.465 13.5293 21.3425 13.9569 21.9895 14.7181C22.6365 15.4793 23 16.5117 23 17.5881V20.294C23 20.6528 22.8788 20.997 22.6632 21.2507C22.4475 21.5044 22.155 21.6469 21.85 21.6469C21.545 21.6469 21.2525 21.5044 21.0368 21.2507C20.8212 20.997 20.7 20.6528 20.7 20.294V17.5881C20.7 17.2293 20.5788 16.8852 20.3632 16.6314C20.1475 16.3777 19.855 16.2352 19.55 16.2352H17.9216C17.5238 15.1632 16.8966 14.2309 16.1011 13.5293H19.55ZM18 8.5C18 9.32843 17.3284 10 16.5 10C15.6716 10 15 9.32843 15 8.5C15 7.67157 15.6716 7 16.5 7C17.3284 7 18 7.67157 18 8.5Z" fill="#F5F7F8"/>
</svg>
