<svg width="23" height="23" viewBox="0 0 23 23" fill="none" xmlns="http://www.w3.org/2000/svg">
<path d="M1.54182 5.75035C4.71661 0.250515 11.7492 -1.63182 17.2491 1.54182C19.4285 2.79928 21.1353 4.73691 22.1078 7.05756C23.0802 9.37822 23.2646 11.9538 22.6327 14.3893C22.3832 15.346 21.2276 15.6243 20.5538 14.9999L20.4572 14.8999L17.8677 11.9252C17.08 11.0202 17.8769 9.65761 19.0141 9.84389L19.1406 9.87033L20.6147 10.2555C20.3315 8.18537 19.3519 6.27331 17.8372 4.83403C16.3225 3.39475 14.363 2.51401 12.281 2.33676C10.1991 2.1595 8.11889 2.6963 6.38268 3.8588C4.64648 5.0213 3.35776 6.74024 2.72862 8.73272C2.09948 10.7252 2.1674 12.8725 2.92121 14.8213C3.67502 16.77 5.06979 18.4041 6.876 19.4545C8.6822 20.505 10.7922 20.9092 12.8588 20.6007C14.9253 20.2922 16.8253 19.2894 18.246 17.7573C18.3479 17.644 18.4712 17.552 18.609 17.4868C18.7467 17.4216 18.896 17.3844 19.0482 17.3774C19.2004 17.3704 19.3525 17.3937 19.4957 17.446C19.6388 17.4983 19.7701 17.5785 19.882 17.6819C19.9938 17.7854 20.084 17.9101 20.1473 18.0487C20.2105 18.1874 20.2456 18.3372 20.2504 18.4895C20.2553 18.6418 20.2298 18.7935 20.1755 18.9359C20.1211 19.0783 20.0391 19.2084 19.934 19.3188C16.3671 23.172 10.4913 24.1943 5.75035 21.4576C0.250515 18.2839 -1.63182 11.2502 1.54182 5.75035ZM11.4997 4.60048C11.7813 4.60051 12.0532 4.70391 12.2636 4.89107C12.4741 5.07822 12.6086 5.3361 12.6415 5.61581L12.6496 5.75035V11.0237L15.7623 14.1364C15.9685 14.3433 16.0882 14.6209 16.0971 14.913C16.1061 15.205 16.0035 15.4894 15.8103 15.7085C15.6171 15.9277 15.3477 16.065 15.0569 16.0927C14.766 16.1204 14.4756 16.0364 14.2444 15.8577L14.1364 15.7623L10.6867 12.3127C10.508 12.1338 10.3933 11.901 10.3602 11.6503L10.3498 11.4997V5.75035C10.3498 5.44538 10.471 5.15291 10.6866 4.93726C10.9023 4.72162 11.1947 4.60048 11.4997 4.60048Z" fill="#F5F7F8"/>
</svg>
